<svg width="1440" height="299" viewBox="0 0 1440 299" fill="none" xmlns="http://www.w3.org/2000/svg">
<rect width="1440" height="299" fill="#021B49"/>
<path d="M618.318 137H608.091L619.614 102.091H632.568L644.091 137H633.864L626.227 111.705H625.955L618.318 137ZM616.409 123.227H635.636V130.318H616.409V123.227ZM656.999 122.273V137H647.589V110.818H656.521V115.795H656.794C657.362 114.136 658.362 112.835 659.794 111.892C661.237 110.949 662.919 110.477 664.839 110.477C666.692 110.477 668.3 110.903 669.663 111.756C671.038 112.597 672.101 113.756 672.851 115.233C673.612 116.71 673.987 118.398 673.976 120.295V137H664.567V122.273C664.578 120.977 664.249 119.96 663.578 119.222C662.919 118.483 661.999 118.114 660.817 118.114C660.044 118.114 659.368 118.284 658.788 118.625C658.22 118.955 657.783 119.432 657.476 120.057C657.169 120.67 657.01 121.409 656.999 122.273ZM695.598 125.545V110.818H705.007V137H696.075V132.023H695.803C695.234 133.693 694.24 135 692.82 135.943C691.399 136.875 689.712 137.341 687.757 137.341C685.928 137.341 684.325 136.92 682.95 136.08C681.587 135.239 680.524 134.08 679.763 132.602C679.013 131.125 678.632 129.432 678.621 127.523V110.818H688.03V125.545C688.041 126.841 688.371 127.858 689.018 128.597C689.678 129.335 690.598 129.705 691.78 129.705C692.564 129.705 693.24 129.54 693.808 129.21C694.388 128.869 694.831 128.392 695.138 127.778C695.456 127.153 695.609 126.409 695.598 125.545ZM719.202 122.273V137H709.793V110.818H718.724V115.795H718.997C719.565 114.136 720.565 112.835 721.997 111.892C723.44 110.949 725.122 110.477 727.043 110.477C728.895 110.477 730.503 110.903 731.866 111.756C733.241 112.597 734.304 113.756 735.054 115.233C735.815 116.71 736.19 118.398 736.179 120.295V137H726.77V122.273C726.781 120.977 726.452 119.96 725.781 119.222C725.122 118.483 724.202 118.114 723.02 118.114C722.247 118.114 721.571 118.284 720.991 118.625C720.423 118.955 719.986 119.432 719.679 120.057C719.372 120.67 719.213 121.409 719.202 122.273ZM753.438 137.477C750.597 137.477 748.165 136.915 746.142 135.79C744.119 134.653 742.568 133.074 741.489 131.051C740.409 129.017 739.869 126.659 739.869 123.977C739.869 121.295 740.409 118.943 741.489 116.92C742.568 114.886 744.119 113.307 746.142 112.182C748.165 111.045 750.597 110.477 753.438 110.477C756.006 110.477 758.227 110.943 760.102 111.875C761.989 112.795 763.449 114.102 764.483 115.795C765.517 117.477 766.04 119.455 766.051 121.727H757.324C757.199 120.352 756.801 119.307 756.131 118.591C755.472 117.864 754.619 117.5 753.574 117.5C752.756 117.5 752.04 117.739 751.426 118.216C750.813 118.682 750.335 119.392 749.994 120.347C749.653 121.29 749.483 122.477 749.483 123.909C749.483 125.341 749.653 126.534 749.994 127.489C750.335 128.432 750.813 129.142 751.426 129.619C752.04 130.085 752.756 130.318 753.574 130.318C754.267 130.318 754.881 130.159 755.415 129.841C755.949 129.511 756.381 129.034 756.71 128.409C757.051 127.773 757.256 127 757.324 126.091H766.051C766.017 128.398 765.489 130.409 764.466 132.125C763.443 133.83 761.994 135.148 760.119 136.08C758.256 137.011 756.028 137.477 753.438 137.477ZM769.933 137V110.818H779.342V137H769.933ZM774.638 108.091C773.365 108.091 772.274 107.67 771.365 106.83C770.456 105.989 770.001 104.977 770.001 103.795C770.001 102.614 770.456 101.602 771.365 100.761C772.274 99.9205 773.365 99.5 774.638 99.5C775.922 99.5 777.013 99.9205 777.911 100.761C778.82 101.602 779.274 102.614 779.274 103.795C779.274 104.977 778.82 105.989 777.911 106.83C777.013 107.67 775.922 108.091 774.638 108.091ZM796.682 137.477C793.886 137.477 791.477 136.943 789.455 135.875C787.443 134.795 785.892 133.25 784.801 131.239C783.722 129.216 783.182 126.795 783.182 123.977C783.182 121.273 783.727 118.909 784.818 116.886C785.909 114.864 787.449 113.29 789.438 112.165C791.426 111.04 793.773 110.477 796.477 110.477C798.455 110.477 800.244 110.784 801.847 111.398C803.449 112.011 804.818 112.903 805.955 114.074C807.091 115.233 807.966 116.642 808.58 118.301C809.193 119.96 809.5 121.83 809.5 123.909V126.091H786.114V120.909H800.841C800.83 120.159 800.636 119.5 800.261 118.932C799.898 118.352 799.403 117.903 798.778 117.585C798.165 117.256 797.466 117.091 796.682 117.091C795.92 117.091 795.222 117.256 794.585 117.585C793.949 117.903 793.438 118.347 793.051 118.915C792.676 119.483 792.477 120.148 792.455 120.909V126.5C792.455 127.341 792.631 128.091 792.983 128.75C793.335 129.409 793.841 129.926 794.5 130.301C795.159 130.676 795.955 130.864 796.886 130.864C797.534 130.864 798.125 130.773 798.659 130.591C799.205 130.409 799.67 130.148 800.057 129.807C800.443 129.455 800.727 129.034 800.909 128.545H809.5C809.205 130.364 808.506 131.943 807.403 133.284C806.301 134.614 804.841 135.648 803.023 136.386C801.216 137.114 799.102 137.477 796.682 137.477ZM835.516 137.477C832.675 137.477 830.243 136.915 828.22 135.79C826.197 134.653 824.646 133.074 823.567 131.051C822.487 129.017 821.947 126.659 821.947 123.977C821.947 121.295 822.487 118.943 823.567 116.92C824.646 114.886 826.197 113.307 828.22 112.182C830.243 111.045 832.675 110.477 835.516 110.477C838.084 110.477 840.305 110.943 842.18 111.875C844.067 112.795 845.527 114.102 846.561 115.795C847.595 117.477 848.118 119.455 848.129 121.727H839.402C839.277 120.352 838.879 119.307 838.209 118.591C837.55 117.864 836.697 117.5 835.652 117.5C834.834 117.5 834.118 117.739 833.504 118.216C832.891 118.682 832.413 119.392 832.072 120.347C831.732 121.29 831.561 122.477 831.561 123.909C831.561 125.341 831.732 126.534 832.072 127.489C832.413 128.432 832.891 129.142 833.504 129.619C834.118 130.085 834.834 130.318 835.652 130.318C836.345 130.318 836.959 130.159 837.493 129.841C838.027 129.511 838.459 129.034 838.788 128.409C839.129 127.773 839.334 127 839.402 126.091H848.129C848.095 128.398 847.567 130.409 846.544 132.125C845.521 133.83 844.072 135.148 842.197 136.08C840.334 137.011 838.107 137.477 835.516 137.477ZM864.625 137.477C861.784 137.477 859.352 136.915 857.33 135.79C855.307 134.653 853.756 133.074 852.676 131.051C851.597 129.017 851.057 126.659 851.057 123.977C851.057 121.295 851.597 118.943 852.676 116.92C853.756 114.886 855.307 113.307 857.33 112.182C859.352 111.045 861.784 110.477 864.625 110.477C867.466 110.477 869.898 111.045 871.92 112.182C873.943 113.307 875.494 114.886 876.574 116.92C877.653 118.943 878.193 121.295 878.193 123.977C878.193 126.659 877.653 129.017 876.574 131.051C875.494 133.074 873.943 134.653 871.92 135.79C869.898 136.915 867.466 137.477 864.625 137.477ZM864.693 130.523C865.489 130.523 866.176 130.256 866.756 129.722C867.335 129.187 867.784 128.426 868.102 127.438C868.42 126.449 868.58 125.273 868.58 123.909C868.58 122.534 868.42 121.358 868.102 120.381C867.784 119.392 867.335 118.631 866.756 118.097C866.176 117.562 865.489 117.295 864.693 117.295C863.852 117.295 863.131 117.562 862.528 118.097C861.926 118.631 861.466 119.392 861.148 120.381C860.83 121.358 860.67 122.534 860.67 123.909C860.67 125.273 860.83 126.449 861.148 127.438C861.466 128.426 861.926 129.187 862.528 129.722C863.131 130.256 863.852 130.523 864.693 130.523ZM882.011 137V110.818H890.943V115.795H891.216C891.761 114.159 892.693 112.864 894.011 111.909C895.33 110.955 896.898 110.477 898.716 110.477C900.557 110.477 902.142 110.966 903.472 111.943C904.801 112.909 905.602 114.193 905.875 115.795H906.148C906.591 114.193 907.534 112.909 908.977 111.943C910.42 110.966 912.114 110.477 914.057 110.477C916.568 110.477 918.602 111.284 920.159 112.898C921.727 114.511 922.511 116.659 922.511 119.341V137H913.102V121.727C913.102 120.58 912.813 119.682 912.233 119.034C911.653 118.375 910.875 118.045 909.898 118.045C908.932 118.045 908.165 118.375 907.597 119.034C907.04 119.682 906.761 120.58 906.761 121.727V137H897.761V121.727C897.761 120.58 897.472 119.682 896.892 119.034C896.313 118.375 895.534 118.045 894.557 118.045C893.909 118.045 893.352 118.193 892.886 118.489C892.42 118.784 892.057 119.21 891.795 119.767C891.545 120.312 891.42 120.966 891.42 121.727V137H882.011ZM944.01 137.409C942.339 137.409 940.862 137.136 939.578 136.591C938.305 136.034 937.305 135.193 936.578 134.068C935.851 132.943 935.487 131.511 935.487 129.773C935.487 128.341 935.732 127.119 936.22 126.108C936.709 125.085 937.391 124.25 938.266 123.602C939.141 122.955 940.158 122.46 941.317 122.119C942.487 121.778 943.749 121.557 945.101 121.455C946.567 121.341 947.743 121.205 948.629 121.045C949.527 120.875 950.175 120.642 950.572 120.347C950.97 120.04 951.169 119.636 951.169 119.136V119.068C951.169 118.386 950.908 117.864 950.385 117.5C949.862 117.136 949.192 116.955 948.374 116.955C947.476 116.955 946.743 117.153 946.175 117.551C945.618 117.937 945.283 118.534 945.169 119.341H936.51C936.624 117.75 937.129 116.284 938.027 114.943C938.936 113.591 940.26 112.511 941.999 111.705C943.737 110.886 945.908 110.477 948.51 110.477C950.385 110.477 952.067 110.699 953.555 111.142C955.044 111.574 956.311 112.182 957.357 112.966C958.402 113.739 959.197 114.648 959.743 115.693C960.3 116.727 960.578 117.852 960.578 119.068V137H951.783V133.318H951.578C951.055 134.295 950.419 135.085 949.669 135.688C948.93 136.29 948.084 136.727 947.129 137C946.186 137.273 945.146 137.409 944.01 137.409ZM947.078 131.477C947.794 131.477 948.464 131.33 949.089 131.034C949.726 130.739 950.243 130.312 950.641 129.756C951.038 129.199 951.237 128.523 951.237 127.727V125.545C950.987 125.648 950.72 125.744 950.436 125.835C950.163 125.926 949.868 126.011 949.55 126.091C949.243 126.17 948.913 126.244 948.561 126.312C948.22 126.381 947.862 126.443 947.487 126.5C946.76 126.614 946.163 126.801 945.697 127.062C945.243 127.312 944.902 127.625 944.675 128C944.459 128.364 944.351 128.773 944.351 129.227C944.351 129.955 944.607 130.511 945.118 130.898C945.629 131.284 946.283 131.477 947.078 131.477ZM987.25 147.364C984.625 147.364 982.375 146.989 980.5 146.239C978.636 145.5 977.188 144.477 976.153 143.17C975.131 141.875 974.557 140.386 974.432 138.705H983.5C983.591 139.261 983.818 139.71 984.182 140.051C984.545 140.392 985.011 140.636 985.58 140.784C986.159 140.943 986.807 141.023 987.523 141.023C988.739 141.023 989.744 140.727 990.54 140.136C991.347 139.545 991.75 138.477 991.75 136.932V132.5H991.477C991.136 133.386 990.614 134.142 989.909 134.767C989.205 135.381 988.358 135.852 987.369 136.182C986.381 136.5 985.295 136.659 984.114 136.659C982.25 136.659 980.534 136.227 978.966 135.364C977.409 134.5 976.159 133.131 975.216 131.256C974.284 129.381 973.818 126.932 973.818 123.909C973.818 120.75 974.307 118.182 975.284 116.205C976.273 114.227 977.545 112.778 979.102 111.858C980.67 110.938 982.318 110.477 984.045 110.477C985.341 110.477 986.477 110.705 987.455 111.159C988.432 111.602 989.25 112.199 989.909 112.949C990.568 113.687 991.068 114.5 991.409 115.386H991.614V110.818H1001.02V136.932C1001.02 139.148 1000.45 141.028 999.301 142.574C998.165 144.131 996.563 145.318 994.494 146.136C992.426 146.955 990.011 147.364 987.25 147.364ZM987.591 129.977C988.455 129.977 989.193 129.739 989.807 129.261C990.432 128.773 990.909 128.08 991.239 127.182C991.58 126.273 991.75 125.182 991.75 123.909C991.75 122.614 991.58 121.506 991.239 120.585C990.909 119.653 990.432 118.943 989.807 118.455C989.193 117.955 988.455 117.705 987.591 117.705C986.727 117.705 985.989 117.955 985.375 118.455C984.773 118.943 984.307 119.653 983.977 120.585C983.659 121.506 983.5 122.614 983.5 123.909C983.5 125.205 983.659 126.307 983.977 127.216C984.307 128.114 984.773 128.801 985.375 129.278C985.989 129.744 986.727 129.977 987.591 129.977ZM1018.35 137.477C1015.56 137.477 1013.15 136.943 1011.13 135.875C1009.12 134.795 1007.56 133.25 1006.47 131.239C1005.39 129.216 1004.85 126.795 1004.85 123.977C1004.85 121.273 1005.4 118.909 1006.49 116.886C1007.58 114.864 1009.12 113.29 1011.11 112.165C1013.1 111.04 1015.44 110.477 1018.15 110.477C1020.13 110.477 1021.92 110.784 1023.52 111.398C1025.12 112.011 1026.49 112.903 1027.63 114.074C1028.76 115.233 1029.64 116.642 1030.25 118.301C1030.87 119.96 1031.17 121.83 1031.17 123.909V126.091H1007.79V120.909H1022.51C1022.5 120.159 1022.31 119.5 1021.93 118.932C1021.57 118.352 1021.08 117.903 1020.45 117.585C1019.84 117.256 1019.14 117.091 1018.35 117.091C1017.59 117.091 1016.89 117.256 1016.26 117.585C1015.62 117.903 1015.11 118.347 1014.72 118.915C1014.35 119.483 1014.15 120.148 1014.13 120.909V126.5C1014.13 127.341 1014.3 128.091 1014.65 128.75C1015.01 129.409 1015.51 129.926 1016.17 130.301C1016.83 130.676 1017.63 130.864 1018.56 130.864C1019.21 130.864 1019.8 130.773 1020.33 130.591C1020.88 130.409 1021.34 130.148 1021.73 129.807C1022.12 129.455 1022.4 129.034 1022.58 128.545H1031.17C1030.88 130.364 1030.18 131.943 1029.08 133.284C1027.97 134.614 1026.51 135.648 1024.69 136.386C1022.89 137.114 1020.77 137.477 1018.35 137.477ZM1044.42 122.273V137H1035.01V110.818H1043.94V115.795H1044.22C1044.78 114.136 1045.78 112.835 1047.22 111.892C1048.66 110.949 1050.34 110.477 1052.26 110.477C1054.11 110.477 1055.72 110.903 1057.09 111.756C1058.46 112.597 1059.52 113.756 1060.27 115.233C1061.03 116.71 1061.41 118.398 1061.4 120.295V137H1051.99V122.273C1052 120.977 1051.67 119.96 1051 119.222C1050.34 118.483 1049.42 118.114 1048.24 118.114C1047.47 118.114 1046.79 118.284 1046.21 118.625C1045.64 118.955 1045.2 119.432 1044.9 120.057C1044.59 120.67 1044.43 121.409 1044.42 122.273ZM1081.66 110.818V117.636H1064.41V110.818H1081.66ZM1067.75 104.545H1077.16V128.58C1077.16 128.943 1077.22 129.25 1077.34 129.5C1077.47 129.739 1077.66 129.92 1077.92 130.045C1078.18 130.159 1078.52 130.216 1078.93 130.216C1079.21 130.216 1079.54 130.182 1079.92 130.114C1080.3 130.045 1080.59 129.989 1080.77 129.943L1082.13 136.557C1081.71 136.682 1081.11 136.835 1080.33 137.017C1079.55 137.199 1078.63 137.318 1077.57 137.375C1075.41 137.489 1073.59 137.267 1072.13 136.71C1070.66 136.142 1069.56 135.25 1068.82 134.034C1068.08 132.818 1067.72 131.295 1067.75 129.466V104.545ZM1097.76 137.477C1094.96 137.477 1092.56 136.943 1090.53 135.875C1088.52 134.795 1086.97 133.25 1085.88 131.239C1084.8 129.216 1084.26 126.795 1084.26 123.977C1084.26 121.273 1084.81 118.909 1085.9 116.886C1086.99 114.864 1088.53 113.29 1090.52 112.165C1092.5 111.04 1094.85 110.477 1097.56 110.477C1099.53 110.477 1101.32 110.784 1102.92 111.398C1104.53 112.011 1105.9 112.903 1107.03 114.074C1108.17 115.233 1109.04 116.642 1109.66 118.301C1110.27 119.96 1110.58 121.83 1110.58 123.909V126.091H1087.19V120.909H1101.92C1101.91 120.159 1101.71 119.5 1101.34 118.932C1100.98 118.352 1100.48 117.903 1099.86 117.585C1099.24 117.256 1098.54 117.091 1097.76 117.091C1097 117.091 1096.3 117.256 1095.66 117.585C1095.03 117.903 1094.52 118.347 1094.13 118.915C1093.75 119.483 1093.56 120.148 1093.53 120.909V126.5C1093.53 127.341 1093.71 128.091 1094.06 128.75C1094.41 129.409 1094.92 129.926 1095.58 130.301C1096.24 130.676 1097.03 130.864 1097.96 130.864C1098.61 130.864 1099.2 130.773 1099.74 130.591C1100.28 130.409 1100.75 130.148 1101.13 129.807C1101.52 129.455 1101.81 129.034 1101.99 128.545H1110.58C1110.28 130.364 1109.58 131.943 1108.48 133.284C1107.38 134.614 1105.92 135.648 1104.1 136.386C1102.29 137.114 1100.18 137.477 1097.76 137.477ZM1136.53 137.477C1133.73 137.477 1131.32 136.943 1129.3 135.875C1127.29 134.795 1125.74 133.25 1124.64 131.239C1123.57 129.216 1123.03 126.795 1123.03 123.977C1123.03 121.273 1123.57 118.909 1124.66 116.886C1125.75 114.864 1127.29 113.29 1129.28 112.165C1131.27 111.04 1133.62 110.477 1136.32 110.477C1138.3 110.477 1140.09 110.784 1141.69 111.398C1143.29 112.011 1144.66 112.903 1145.8 114.074C1146.93 115.233 1147.81 116.642 1148.42 118.301C1149.04 119.96 1149.34 121.83 1149.34 123.909V126.091H1125.96V120.909H1140.68C1140.67 120.159 1140.48 119.5 1140.11 118.932C1139.74 118.352 1139.25 117.903 1138.62 117.585C1138.01 117.256 1137.31 117.091 1136.53 117.091C1135.76 117.091 1135.07 117.256 1134.43 117.585C1133.79 117.903 1133.28 118.347 1132.89 118.915C1132.52 119.483 1132.32 120.148 1132.3 120.909V126.5C1132.3 127.341 1132.47 128.091 1132.83 128.75C1133.18 129.409 1133.68 129.926 1134.34 130.301C1135 130.676 1135.8 130.864 1136.73 130.864C1137.38 130.864 1137.97 130.773 1138.5 130.591C1139.05 130.409 1139.51 130.148 1139.9 129.807C1140.29 129.455 1140.57 129.034 1140.75 128.545H1149.34C1149.05 130.364 1148.35 131.943 1147.25 133.284C1146.14 134.614 1144.68 135.648 1142.87 136.386C1141.06 137.114 1138.95 137.477 1136.53 137.477ZM1170.04 137.409C1168.37 137.409 1166.89 137.136 1165.61 136.591C1164.34 136.034 1163.34 135.193 1162.61 134.068C1161.88 132.943 1161.52 131.511 1161.52 129.773C1161.52 128.341 1161.76 127.119 1162.25 126.108C1162.74 125.085 1163.42 124.25 1164.3 123.602C1165.17 122.955 1166.19 122.46 1167.35 122.119C1168.52 121.778 1169.78 121.557 1171.13 121.455C1172.6 121.341 1173.77 121.205 1174.66 121.045C1175.56 120.875 1176.21 120.642 1176.6 120.347C1177 120.04 1177.2 119.636 1177.2 119.136V119.068C1177.2 118.386 1176.94 117.864 1176.42 117.5C1175.89 117.136 1175.22 116.955 1174.4 116.955C1173.51 116.955 1172.77 117.153 1172.21 117.551C1171.65 117.937 1171.31 118.534 1171.2 119.341H1162.54C1162.65 117.75 1163.16 116.284 1164.06 114.943C1164.97 113.591 1166.29 112.511 1168.03 111.705C1169.77 110.886 1171.94 110.477 1174.54 110.477C1176.42 110.477 1178.1 110.699 1179.59 111.142C1181.08 111.574 1182.34 112.182 1183.39 112.966C1184.43 113.739 1185.23 114.648 1185.77 115.693C1186.33 116.727 1186.61 117.852 1186.61 119.068V137H1177.81V133.318H1177.61C1177.09 134.295 1176.45 135.085 1175.7 135.688C1174.96 136.29 1174.12 136.727 1173.16 137C1172.22 137.273 1171.18 137.409 1170.04 137.409ZM1173.11 131.477C1173.83 131.477 1174.5 131.33 1175.12 131.034C1175.76 130.739 1176.27 130.312 1176.67 129.756C1177.07 129.199 1177.27 128.523 1177.27 127.727V125.545C1177.02 125.648 1176.75 125.744 1176.47 125.835C1176.19 125.926 1175.9 126.011 1175.58 126.091C1175.27 126.17 1174.94 126.244 1174.59 126.312C1174.25 126.381 1173.89 126.443 1173.52 126.5C1172.79 126.614 1172.19 126.801 1171.73 127.062C1171.27 127.312 1170.93 127.625 1170.71 128C1170.49 128.364 1170.38 128.773 1170.38 129.227C1170.38 129.955 1170.64 130.511 1171.15 130.898C1171.66 131.284 1172.31 131.477 1173.11 131.477ZM1208.08 125.545V110.818H1217.49V137H1208.56V132.023H1208.29C1207.72 133.693 1206.72 135 1205.3 135.943C1203.88 136.875 1202.2 137.341 1200.24 137.341C1198.41 137.341 1196.81 136.92 1195.43 136.08C1194.07 135.239 1193.01 134.08 1192.25 132.602C1191.5 131.125 1191.12 129.432 1191.11 127.523V110.818H1200.51V125.545C1200.53 126.841 1200.86 127.858 1201.5 128.597C1202.16 129.335 1203.08 129.705 1204.26 129.705C1205.05 129.705 1205.72 129.54 1206.29 129.21C1206.87 128.869 1207.32 128.392 1207.62 127.778C1207.94 127.153 1208.09 126.409 1208.08 125.545ZM1222.28 137V110.818H1231.21V115.795H1231.48C1232.03 114.159 1232.96 112.864 1234.28 111.909C1235.6 110.955 1237.16 110.477 1238.98 110.477C1240.82 110.477 1242.41 110.966 1243.74 111.943C1245.07 112.909 1245.87 114.193 1246.14 115.795H1246.41C1246.86 114.193 1247.8 112.909 1249.24 111.943C1250.69 110.966 1252.38 110.477 1254.32 110.477C1256.83 110.477 1258.87 111.284 1260.42 112.898C1261.99 114.511 1262.78 116.659 1262.78 119.341V137H1253.37V121.727C1253.37 120.58 1253.08 119.682 1252.5 119.034C1251.92 118.375 1251.14 118.045 1250.16 118.045C1249.2 118.045 1248.43 118.375 1247.86 119.034C1247.31 119.682 1247.03 120.58 1247.03 121.727V137H1238.03V121.727C1238.03 120.58 1237.74 119.682 1237.16 119.034C1236.58 118.375 1235.8 118.045 1234.82 118.045C1234.17 118.045 1233.62 118.193 1233.15 118.489C1232.69 118.784 1232.32 119.21 1232.06 119.767C1231.81 120.312 1231.69 120.966 1231.69 121.727V137H1222.28ZM1279.96 137.477C1277.17 137.477 1274.76 136.943 1272.74 135.875C1270.72 134.795 1269.17 133.25 1268.08 131.239C1267 129.216 1266.46 126.795 1266.46 123.977C1266.46 121.273 1267.01 118.909 1268.1 116.886C1269.19 114.864 1270.73 113.29 1272.72 112.165C1274.71 111.04 1277.05 110.477 1279.76 110.477C1281.74 110.477 1283.53 110.784 1285.13 111.398C1286.73 112.011 1288.1 112.903 1289.24 114.074C1290.37 115.233 1291.25 116.642 1291.86 118.301C1292.47 119.96 1292.78 121.83 1292.78 123.909V126.091H1269.39V120.909H1284.12C1284.11 120.159 1283.92 119.5 1283.54 118.932C1283.18 118.352 1282.68 117.903 1282.06 117.585C1281.45 117.256 1280.75 117.091 1279.96 117.091C1279.2 117.091 1278.5 117.256 1277.87 117.585C1277.23 117.903 1276.72 118.347 1276.33 118.915C1275.96 119.483 1275.76 120.148 1275.74 120.909V126.5C1275.74 127.341 1275.91 128.091 1276.26 128.75C1276.62 129.409 1277.12 129.926 1277.78 130.301C1278.44 130.676 1279.24 130.864 1280.17 130.864C1280.82 130.864 1281.41 130.773 1281.94 130.591C1282.49 130.409 1282.95 130.148 1283.34 129.807C1283.72 129.455 1284.01 129.034 1284.19 128.545H1292.78C1292.49 130.364 1291.79 131.943 1290.68 133.284C1289.58 134.614 1288.12 135.648 1286.3 136.386C1284.5 137.114 1282.38 137.477 1279.96 137.477ZM1306.03 122.273V137H1296.62V110.818H1305.55V115.795H1305.83C1306.39 114.136 1307.39 112.835 1308.83 111.892C1310.27 110.949 1311.95 110.477 1313.87 110.477C1315.72 110.477 1317.33 110.903 1318.69 111.756C1320.07 112.597 1321.13 113.756 1321.88 115.233C1322.64 116.71 1323.02 118.398 1323.01 120.295V137H1313.6V122.273C1313.61 120.977 1313.28 119.96 1312.61 119.222C1311.95 118.483 1311.03 118.114 1309.85 118.114C1309.08 118.114 1308.4 118.284 1307.82 118.625C1307.25 118.955 1306.81 119.432 1306.51 120.057C1306.2 120.67 1306.04 121.409 1306.03 122.273ZM1343.27 110.818V117.636H1326.02V110.818H1343.27ZM1329.36 104.545H1338.77V128.58C1338.77 128.943 1338.83 129.25 1338.95 129.5C1339.08 129.739 1339.27 129.92 1339.53 130.045C1339.79 130.159 1340.13 130.216 1340.54 130.216C1340.82 130.216 1341.15 130.182 1341.53 130.114C1341.91 130.045 1342.2 129.989 1342.38 129.943L1343.74 136.557C1343.32 136.682 1342.72 136.835 1341.94 137.017C1341.16 137.199 1340.24 137.318 1339.17 137.375C1337.02 137.489 1335.2 137.267 1333.74 136.71C1332.27 136.142 1331.17 135.25 1330.43 134.034C1329.69 132.818 1329.33 131.295 1329.36 129.466V104.545ZM1359.37 137.477C1356.57 137.477 1354.16 136.943 1352.14 135.875C1350.13 134.795 1348.58 133.25 1347.49 131.239C1346.41 129.216 1345.87 126.795 1345.87 123.977C1345.87 121.273 1346.41 118.909 1347.51 116.886C1348.6 114.864 1350.14 113.29 1352.12 112.165C1354.11 111.04 1356.46 110.477 1359.16 110.477C1361.14 110.477 1362.93 110.784 1364.53 111.398C1366.14 112.011 1367.51 112.903 1368.64 114.074C1369.78 115.233 1370.65 116.642 1371.27 118.301C1371.88 119.96 1372.19 121.83 1372.19 123.909V126.091H1348.8V120.909H1363.53C1363.52 120.159 1363.32 119.5 1362.95 118.932C1362.59 118.352 1362.09 117.903 1361.47 117.585C1360.85 117.256 1360.15 117.091 1359.37 117.091C1358.61 117.091 1357.91 117.256 1357.27 117.585C1356.64 117.903 1356.13 118.347 1355.74 118.915C1355.36 119.483 1355.16 120.148 1355.14 120.909V126.5C1355.14 127.341 1355.32 128.091 1355.67 128.75C1356.02 129.409 1356.53 129.926 1357.19 130.301C1357.85 130.676 1358.64 130.864 1359.57 130.864C1360.22 130.864 1360.81 130.773 1361.35 130.591C1361.89 130.409 1362.36 130.148 1362.74 129.807C1363.13 129.455 1363.41 129.034 1363.6 128.545H1372.19C1371.89 130.364 1371.19 131.943 1370.09 133.284C1368.99 134.614 1367.53 135.648 1365.71 136.386C1363.9 137.114 1361.79 137.477 1359.37 137.477ZM633.318 177.341H624.659C624.614 176.807 624.426 176.347 624.097 175.96C623.767 175.574 623.341 175.278 622.818 175.074C622.307 174.858 621.739 174.75 621.114 174.75C620.307 174.75 619.614 174.898 619.034 175.193C618.455 175.489 618.17 175.909 618.182 176.455C618.17 176.841 618.335 177.199 618.676 177.528C619.028 177.858 619.705 178.114 620.705 178.295L626.023 179.25C628.705 179.739 630.699 180.562 632.006 181.722C633.324 182.869 633.989 184.409 634 186.341C633.989 188.205 633.432 189.824 632.33 191.199C631.239 192.562 629.744 193.619 627.847 194.369C625.96 195.108 623.807 195.477 621.386 195.477C617.386 195.477 614.256 194.659 611.994 193.023C609.744 191.386 608.489 189.227 608.227 186.545H617.568C617.693 187.375 618.102 188.017 618.795 188.472C619.5 188.915 620.386 189.136 621.455 189.136C622.318 189.136 623.028 188.989 623.585 188.693C624.153 188.398 624.443 187.977 624.455 187.432C624.443 186.932 624.193 186.534 623.705 186.239C623.227 185.943 622.477 185.705 621.455 185.523L616.818 184.705C614.148 184.239 612.148 183.352 610.818 182.045C609.489 180.739 608.83 179.057 608.841 177C608.83 175.182 609.307 173.642 610.273 172.381C611.25 171.108 612.642 170.142 614.449 169.483C616.267 168.812 618.42 168.477 620.909 168.477C624.693 168.477 627.676 169.261 629.858 170.83C632.051 172.398 633.205 174.568 633.318 177.341ZM650.151 195.477C647.355 195.477 644.946 194.943 642.923 193.875C640.912 192.795 639.361 191.25 638.27 189.239C637.19 187.216 636.651 184.795 636.651 181.977C636.651 179.273 637.196 176.909 638.287 174.886C639.378 172.864 640.918 171.29 642.906 170.165C644.895 169.04 647.241 168.477 649.946 168.477C651.923 168.477 653.713 168.784 655.315 169.398C656.918 170.011 658.287 170.903 659.423 172.074C660.56 173.233 661.435 174.642 662.048 176.301C662.662 177.96 662.969 179.83 662.969 181.909V184.091H639.582V178.909H654.31C654.298 178.159 654.105 177.5 653.73 176.932C653.366 176.352 652.872 175.903 652.247 175.585C651.634 175.256 650.935 175.091 650.151 175.091C649.389 175.091 648.69 175.256 648.054 175.585C647.418 175.903 646.906 176.347 646.52 176.915C646.145 177.483 645.946 178.148 645.923 178.909V184.5C645.923 185.341 646.099 186.091 646.452 186.75C646.804 187.409 647.31 187.926 647.969 188.301C648.628 188.676 649.423 188.864 650.355 188.864C651.003 188.864 651.594 188.773 652.128 188.591C652.673 188.409 653.139 188.148 653.526 187.807C653.912 187.455 654.196 187.034 654.378 186.545H662.969C662.673 188.364 661.974 189.943 660.872 191.284C659.77 192.614 658.31 193.648 656.491 194.386C654.685 195.114 652.571 195.477 650.151 195.477ZM683.786 183.545V168.818H693.195V195H684.263V190.023H683.99C683.422 191.693 682.428 193 681.007 193.943C679.587 194.875 677.899 195.341 675.945 195.341C674.115 195.341 672.513 194.92 671.138 194.08C669.774 193.239 668.712 192.08 667.95 190.602C667.2 189.125 666.82 187.432 666.808 185.523V168.818H676.217V183.545C676.229 184.841 676.558 185.858 677.206 186.597C677.865 187.335 678.786 187.705 679.967 187.705C680.751 187.705 681.428 187.54 681.996 187.21C682.575 186.869 683.018 186.392 683.325 185.778C683.643 185.153 683.797 184.409 683.786 183.545ZM716.952 180.273V195H707.543V168.818H716.474V173.795H716.747C717.315 172.136 718.315 170.835 719.747 169.892C721.19 168.949 722.872 168.477 724.793 168.477C726.645 168.477 728.253 168.903 729.616 169.756C730.991 170.597 732.054 171.756 732.804 173.233C733.565 174.71 733.94 176.398 733.929 178.295V195H724.52V180.273C724.531 178.977 724.202 177.96 723.531 177.222C722.872 176.483 721.952 176.114 720.77 176.114C719.997 176.114 719.321 176.284 718.741 176.625C718.173 176.955 717.736 177.432 717.429 178.057C717.122 178.67 716.963 179.409 716.952 180.273ZM755.551 183.545V168.818H764.96V195H756.028V190.023H755.756C755.188 191.693 754.193 193 752.773 193.943C751.352 194.875 749.665 195.341 747.71 195.341C745.881 195.341 744.278 194.92 742.903 194.08C741.54 193.239 740.477 192.08 739.716 190.602C738.966 189.125 738.585 187.432 738.574 185.523V168.818H747.983V183.545C747.994 184.841 748.324 185.858 748.972 186.597C749.631 187.335 750.551 187.705 751.733 187.705C752.517 187.705 753.193 187.54 753.761 187.21C754.341 186.869 754.784 186.392 755.091 185.778C755.409 185.153 755.563 184.409 755.551 183.545ZM748.665 165.545L751.938 157.909H759.983L754.869 165.545H748.665ZM769.746 195V168.818H778.678V173.795H778.95C779.496 172.159 780.428 170.864 781.746 169.909C783.064 168.955 784.632 168.477 786.45 168.477C788.291 168.477 789.876 168.966 791.206 169.943C792.536 170.909 793.337 172.193 793.609 173.795H793.882C794.325 172.193 795.268 170.909 796.712 169.943C798.155 168.966 799.848 168.477 801.791 168.477C804.303 168.477 806.337 169.284 807.893 170.898C809.462 172.511 810.246 174.659 810.246 177.341V195H800.837V179.727C800.837 178.58 800.547 177.682 799.967 177.034C799.388 176.375 798.609 176.045 797.632 176.045C796.666 176.045 795.899 176.375 795.331 177.034C794.774 177.682 794.496 178.58 794.496 179.727V195H785.496V179.727C785.496 178.58 785.206 177.682 784.626 177.034C784.047 176.375 783.268 176.045 782.291 176.045C781.643 176.045 781.087 176.193 780.621 176.489C780.155 176.784 779.791 177.21 779.53 177.767C779.28 178.312 779.155 178.966 779.155 179.727V195H769.746ZM827.432 195.477C824.636 195.477 822.227 194.943 820.205 193.875C818.193 192.795 816.642 191.25 815.551 189.239C814.472 187.216 813.932 184.795 813.932 181.977C813.932 179.273 814.477 176.909 815.568 174.886C816.659 172.864 818.199 171.29 820.188 170.165C822.176 169.04 824.523 168.477 827.227 168.477C829.205 168.477 830.994 168.784 832.597 169.398C834.199 170.011 835.568 170.903 836.705 172.074C837.841 173.233 838.716 174.642 839.33 176.301C839.943 177.96 840.25 179.83 840.25 181.909V184.091H816.864V178.909H831.591C831.58 178.159 831.386 177.5 831.011 176.932C830.648 176.352 830.153 175.903 829.528 175.585C828.915 175.256 828.216 175.091 827.432 175.091C826.67 175.091 825.972 175.256 825.335 175.585C824.699 175.903 824.188 176.347 823.801 176.915C823.426 177.483 823.227 178.148 823.205 178.909V184.5C823.205 185.341 823.381 186.091 823.733 186.75C824.085 187.409 824.591 187.926 825.25 188.301C825.909 188.676 826.705 188.864 827.636 188.864C828.284 188.864 828.875 188.773 829.409 188.591C829.955 188.409 830.42 188.148 830.807 187.807C831.193 187.455 831.477 187.034 831.659 186.545H840.25C839.955 188.364 839.256 189.943 838.153 191.284C837.051 192.614 835.591 193.648 833.773 194.386C831.966 195.114 829.852 195.477 827.432 195.477ZM844.089 195V168.818H853.226V173.795H853.499C853.976 171.955 854.732 170.608 855.766 169.756C856.811 168.903 858.033 168.477 859.43 168.477C859.839 168.477 860.243 168.511 860.641 168.58C861.05 168.636 861.442 168.722 861.817 168.835V176.864C861.351 176.705 860.777 176.585 860.095 176.506C859.413 176.426 858.828 176.386 858.339 176.386C857.419 176.386 856.589 176.597 855.851 177.017C855.124 177.426 854.55 178.006 854.129 178.756C853.709 179.494 853.499 180.364 853.499 181.364V195H844.089ZM876.016 195.477C873.175 195.477 870.743 194.915 868.72 193.79C866.697 192.653 865.146 191.074 864.067 189.051C862.987 187.017 862.447 184.659 862.447 181.977C862.447 179.295 862.987 176.943 864.067 174.92C865.146 172.886 866.697 171.307 868.72 170.182C870.743 169.045 873.175 168.477 876.016 168.477C878.857 168.477 881.288 169.045 883.311 170.182C885.334 171.307 886.885 172.886 887.964 174.92C889.044 176.943 889.584 179.295 889.584 181.977C889.584 184.659 889.044 187.017 887.964 189.051C886.885 191.074 885.334 192.653 883.311 193.79C881.288 194.915 878.857 195.477 876.016 195.477ZM876.084 188.523C876.879 188.523 877.567 188.256 878.146 187.722C878.726 187.187 879.175 186.426 879.493 185.438C879.811 184.449 879.97 183.273 879.97 181.909C879.97 180.534 879.811 179.358 879.493 178.381C879.175 177.392 878.726 176.631 878.146 176.097C877.567 175.562 876.879 175.295 876.084 175.295C875.243 175.295 874.521 175.562 873.919 176.097C873.317 176.631 872.857 177.392 872.538 178.381C872.22 179.358 872.061 180.534 872.061 181.909C872.061 183.273 872.22 184.449 872.538 185.438C872.857 186.426 873.317 187.187 873.919 187.722C874.521 188.256 875.243 188.523 876.084 188.523ZM912.442 195.341C910.578 195.341 908.862 194.852 907.294 193.875C905.737 192.898 904.487 191.415 903.544 189.426C902.612 187.437 902.146 184.932 902.146 181.909C902.146 178.75 902.635 176.182 903.612 174.205C904.601 172.227 905.874 170.778 907.43 169.858C908.999 168.938 910.646 168.477 912.374 168.477C913.669 168.477 914.805 168.705 915.783 169.159C916.76 169.602 917.578 170.199 918.237 170.949C918.896 171.687 919.396 172.5 919.737 173.386H919.874V160.091H929.283V195H919.942V190.705H919.737C919.374 191.591 918.851 192.386 918.169 193.091C917.499 193.784 916.68 194.335 915.714 194.744C914.76 195.142 913.669 195.341 912.442 195.341ZM915.919 188.114C916.783 188.114 917.521 187.864 918.135 187.364C918.76 186.852 919.237 186.136 919.567 185.216C919.908 184.284 920.078 183.182 920.078 181.909C920.078 180.614 919.908 179.506 919.567 178.585C919.237 177.653 918.76 176.943 918.135 176.455C917.521 175.955 916.783 175.705 915.919 175.705C915.055 175.705 914.317 175.955 913.703 176.455C913.101 176.943 912.635 177.653 912.305 178.585C911.987 179.506 911.828 180.614 911.828 181.909C911.828 183.205 911.987 184.318 912.305 185.25C912.635 186.17 913.101 186.881 913.703 187.381C914.317 187.869 915.055 188.114 915.919 188.114ZM946.447 195.477C943.652 195.477 941.243 194.943 939.22 193.875C937.209 192.795 935.658 191.25 934.567 189.239C933.487 187.216 932.947 184.795 932.947 181.977C932.947 179.273 933.493 176.909 934.584 174.886C935.675 172.864 937.214 171.29 939.203 170.165C941.192 169.04 943.538 168.477 946.243 168.477C948.22 168.477 950.01 168.784 951.612 169.398C953.214 170.011 954.584 170.903 955.72 172.074C956.857 173.233 957.732 174.642 958.345 176.301C958.959 177.96 959.266 179.83 959.266 181.909V184.091H935.879V178.909H950.607C950.595 178.159 950.402 177.5 950.027 176.932C949.663 176.352 949.169 175.903 948.544 175.585C947.93 175.256 947.232 175.091 946.447 175.091C945.686 175.091 944.987 175.256 944.351 175.585C943.714 175.903 943.203 176.347 942.817 176.915C942.442 177.483 942.243 178.148 942.22 178.909V184.5C942.22 185.341 942.396 186.091 942.749 186.75C943.101 187.409 943.607 187.926 944.266 188.301C944.925 188.676 945.72 188.864 946.652 188.864C947.3 188.864 947.891 188.773 948.425 188.591C948.97 188.409 949.436 188.148 949.822 187.807C950.209 187.455 950.493 187.034 950.675 186.545H959.266C958.97 188.364 958.271 189.943 957.169 191.284C956.067 192.614 954.607 193.648 952.788 194.386C950.982 195.114 948.868 195.477 946.447 195.477ZM999.054 168.818L990.259 195H979.349L970.554 168.818H980.44L984.668 186.136H984.94L989.168 168.818H999.054ZM1013.48 195.477C1010.68 195.477 1008.27 194.943 1006.25 193.875C1004.24 192.795 1002.69 191.25 1001.6 189.239C1000.52 187.216 999.979 184.795 999.979 181.977C999.979 179.273 1000.52 176.909 1001.62 174.886C1002.71 172.864 1004.25 171.29 1006.23 170.165C1008.22 169.04 1010.57 168.477 1013.27 168.477C1015.25 168.477 1017.04 168.784 1018.64 169.398C1020.25 170.011 1021.62 170.903 1022.75 172.074C1023.89 173.233 1024.76 174.642 1025.38 176.301C1025.99 177.96 1026.3 179.83 1026.3 181.909V184.091H1002.91V178.909H1017.64C1017.63 178.159 1017.43 177.5 1017.06 176.932C1016.69 176.352 1016.2 175.903 1015.58 175.585C1014.96 175.256 1014.26 175.091 1013.48 175.091C1012.72 175.091 1012.02 175.256 1011.38 175.585C1010.75 175.903 1010.23 176.347 1009.85 176.915C1009.47 177.483 1009.27 178.148 1009.25 178.909V184.5C1009.25 185.341 1009.43 186.091 1009.78 186.75C1010.13 187.409 1010.64 187.926 1011.3 188.301C1011.96 188.676 1012.75 188.864 1013.68 188.864C1014.33 188.864 1014.92 188.773 1015.46 188.591C1016 188.409 1016.47 188.148 1016.85 187.807C1017.24 187.455 1017.52 187.034 1017.71 186.545H1026.3C1026 188.364 1025.3 189.943 1024.2 191.284C1023.1 192.614 1021.64 193.648 1019.82 194.386C1018.01 195.114 1015.9 195.477 1013.48 195.477ZM1039.55 180.273V195H1030.14V168.818H1039.07V173.795H1039.34C1039.91 172.136 1040.91 170.835 1042.34 169.892C1043.78 168.949 1045.47 168.477 1047.39 168.477C1049.24 168.477 1050.85 168.903 1052.21 169.756C1053.59 170.597 1054.65 171.756 1055.4 173.233C1056.16 174.71 1056.53 176.398 1056.52 178.295V195H1047.11V180.273C1047.13 178.977 1046.8 177.96 1046.12 177.222C1045.47 176.483 1044.55 176.114 1043.36 176.114C1042.59 176.114 1041.91 176.284 1041.34 176.625C1040.77 176.955 1040.33 177.432 1040.02 178.057C1039.72 178.67 1039.56 179.409 1039.55 180.273ZM1070.64 195.341C1068.78 195.341 1067.07 194.852 1065.5 193.875C1063.94 192.898 1062.69 191.415 1061.75 189.426C1060.82 187.437 1060.35 184.932 1060.35 181.909C1060.35 178.75 1060.84 176.182 1061.82 174.205C1062.8 172.227 1064.08 170.778 1065.63 169.858C1067.2 168.938 1068.85 168.477 1070.58 168.477C1071.87 168.477 1073.01 168.705 1073.99 169.159C1074.96 169.602 1075.78 170.199 1076.44 170.949C1077.1 171.687 1077.6 172.5 1077.94 173.386H1078.08V160.091H1087.49V195H1078.14V190.705H1077.94C1077.58 191.591 1077.05 192.386 1076.37 193.091C1075.7 193.784 1074.88 194.335 1073.92 194.744C1072.96 195.142 1071.87 195.341 1070.64 195.341ZM1074.12 188.114C1074.99 188.114 1075.72 187.864 1076.34 187.364C1076.96 186.852 1077.44 186.136 1077.77 185.216C1078.11 184.284 1078.28 183.182 1078.28 181.909C1078.28 180.614 1078.11 179.506 1077.77 178.585C1077.44 177.653 1076.96 176.943 1076.34 176.455C1075.72 175.955 1074.99 175.705 1074.12 175.705C1073.26 175.705 1072.52 175.955 1071.91 176.455C1071.3 176.943 1070.84 177.653 1070.51 178.585C1070.19 179.506 1070.03 180.614 1070.03 181.909C1070.03 183.205 1070.19 184.318 1070.51 185.25C1070.84 186.17 1071.3 186.881 1071.91 187.381C1072.52 187.869 1073.26 188.114 1074.12 188.114ZM1099.4 195.409C1097.73 195.409 1096.25 195.136 1094.97 194.591C1093.7 194.034 1092.7 193.193 1091.97 192.068C1091.24 190.943 1090.88 189.511 1090.88 187.773C1090.88 186.341 1091.12 185.119 1091.61 184.108C1092.1 183.085 1092.78 182.25 1093.66 181.602C1094.53 180.955 1095.55 180.46 1096.71 180.119C1097.88 179.778 1099.14 179.557 1100.49 179.455C1101.96 179.341 1103.13 179.205 1104.02 179.045C1104.92 178.875 1105.57 178.642 1105.96 178.347C1106.36 178.04 1106.56 177.636 1106.56 177.136V177.068C1106.56 176.386 1106.3 175.864 1105.78 175.5C1105.25 175.136 1104.58 174.955 1103.76 174.955C1102.87 174.955 1102.13 175.153 1101.57 175.551C1101.01 175.937 1100.67 176.534 1100.56 177.341H1091.9C1092.01 175.75 1092.52 174.284 1093.42 172.943C1094.33 171.591 1095.65 170.511 1097.39 169.705C1099.13 168.886 1101.3 168.477 1103.9 168.477C1105.78 168.477 1107.46 168.699 1108.95 169.142C1110.43 169.574 1111.7 170.182 1112.75 170.966C1113.79 171.739 1114.59 172.648 1115.13 173.693C1115.69 174.727 1115.97 175.852 1115.97 177.068V195H1107.17V191.318H1106.97C1106.45 192.295 1105.81 193.085 1105.06 193.688C1104.32 194.29 1103.47 194.727 1102.52 195C1101.58 195.273 1100.54 195.409 1099.4 195.409ZM1102.47 189.477C1103.18 189.477 1103.86 189.33 1104.48 189.034C1105.12 188.739 1105.63 188.312 1106.03 187.756C1106.43 187.199 1106.63 186.523 1106.63 185.727V183.545C1106.38 183.648 1106.11 183.744 1105.83 183.835C1105.55 183.926 1105.26 184.011 1104.94 184.091C1104.63 184.17 1104.3 184.244 1103.95 184.312C1103.61 184.381 1103.25 184.443 1102.88 184.5C1102.15 184.614 1101.55 184.801 1101.09 185.062C1100.63 185.312 1100.29 185.625 1100.07 186C1099.85 186.364 1099.74 186.773 1099.74 187.227C1099.74 187.955 1100 188.511 1100.51 188.898C1101.02 189.284 1101.67 189.477 1102.47 189.477ZM1144.4 177.341H1135.74C1135.69 176.807 1135.5 176.347 1135.17 175.96C1134.85 175.574 1134.42 175.278 1133.9 175.074C1133.38 174.858 1132.82 174.75 1132.19 174.75C1131.38 174.75 1130.69 174.898 1130.11 175.193C1129.53 175.489 1129.25 175.909 1129.26 176.455C1129.25 176.841 1129.41 177.199 1129.75 177.528C1130.11 177.858 1130.78 178.114 1131.78 178.295L1137.1 179.25C1139.78 179.739 1141.78 180.562 1143.08 181.722C1144.4 182.869 1145.07 184.409 1145.08 186.341C1145.07 188.205 1144.51 189.824 1143.41 191.199C1142.32 192.562 1140.82 193.619 1138.92 194.369C1137.04 195.108 1134.88 195.477 1132.46 195.477C1128.46 195.477 1125.33 194.659 1123.07 193.023C1120.82 191.386 1119.57 189.227 1119.31 186.545H1128.65C1128.77 187.375 1129.18 188.017 1129.87 188.472C1130.58 188.915 1131.46 189.136 1132.53 189.136C1133.4 189.136 1134.11 188.989 1134.66 188.693C1135.23 188.398 1135.52 187.977 1135.53 187.432C1135.52 186.932 1135.27 186.534 1134.78 186.239C1134.31 185.943 1133.56 185.705 1132.53 185.523L1127.9 184.705C1125.23 184.239 1123.23 183.352 1121.9 182.045C1120.57 180.739 1119.91 179.057 1119.92 177C1119.91 175.182 1120.38 173.642 1121.35 172.381C1122.33 171.108 1123.72 170.142 1125.53 169.483C1127.35 168.812 1129.5 168.477 1131.99 168.477C1135.77 168.477 1138.75 169.261 1140.94 170.83C1143.13 172.398 1144.28 174.568 1144.4 177.341ZM1170.79 195.477C1168 195.477 1165.59 194.943 1163.56 193.875C1161.55 192.795 1160 191.25 1158.91 189.239C1157.83 187.216 1157.29 184.795 1157.29 181.977C1157.29 179.273 1157.84 176.909 1158.93 174.886C1160.02 172.864 1161.56 171.29 1163.55 170.165C1165.54 169.04 1167.88 168.477 1170.59 168.477C1172.56 168.477 1174.35 168.784 1175.96 169.398C1177.56 170.011 1178.93 170.903 1180.06 172.074C1181.2 173.233 1182.08 174.642 1182.69 176.301C1183.3 177.96 1183.61 179.83 1183.61 181.909V184.091H1160.22V178.909H1174.95C1174.94 178.159 1174.75 177.5 1174.37 176.932C1174.01 176.352 1173.51 175.903 1172.89 175.585C1172.27 175.256 1171.58 175.091 1170.79 175.091C1170.03 175.091 1169.33 175.256 1168.69 175.585C1168.06 175.903 1167.55 176.347 1167.16 176.915C1166.79 177.483 1166.59 178.148 1166.56 178.909V184.5C1166.56 185.341 1166.74 186.091 1167.09 186.75C1167.44 187.409 1167.95 187.926 1168.61 188.301C1169.27 188.676 1170.06 188.864 1171 188.864C1171.64 188.864 1172.23 188.773 1172.77 188.591C1173.31 188.409 1173.78 188.148 1174.17 187.807C1174.55 187.455 1174.84 187.034 1175.02 186.545H1183.61C1183.31 188.364 1182.62 189.943 1181.51 191.284C1180.41 192.614 1178.95 193.648 1177.13 194.386C1175.33 195.114 1173.21 195.477 1170.79 195.477ZM1209.62 195.477C1206.78 195.477 1204.35 194.915 1202.33 193.79C1200.31 192.653 1198.76 191.074 1197.68 189.051C1196.6 187.017 1196.06 184.659 1196.06 181.977C1196.06 179.295 1196.6 176.943 1197.68 174.92C1198.76 172.886 1200.31 171.307 1202.33 170.182C1204.35 169.045 1206.78 168.477 1209.62 168.477C1212.19 168.477 1214.41 168.943 1216.29 169.875C1218.18 170.795 1219.64 172.102 1220.67 173.795C1221.7 175.477 1222.23 177.455 1222.24 179.727H1213.51C1213.39 178.352 1212.99 177.307 1212.32 176.591C1211.66 175.864 1210.81 175.5 1209.76 175.5C1208.94 175.5 1208.23 175.739 1207.61 176.216C1207 176.682 1206.52 177.392 1206.18 178.347C1205.84 179.29 1205.67 180.477 1205.67 181.909C1205.67 183.341 1205.84 184.534 1206.18 185.489C1206.52 186.432 1207 187.142 1207.61 187.619C1208.23 188.085 1208.94 188.318 1209.76 188.318C1210.45 188.318 1211.07 188.159 1211.6 187.841C1212.14 187.511 1212.57 187.034 1212.9 186.409C1213.24 185.773 1213.44 185 1213.51 184.091H1222.24C1222.2 186.398 1221.68 188.409 1220.65 190.125C1219.63 191.83 1218.18 193.148 1216.31 194.08C1214.44 195.011 1212.22 195.477 1209.62 195.477ZM1235.53 160.091V195H1226.12V160.091H1235.53ZM1240.32 195V168.818H1249.73V195H1240.32ZM1245.03 166.091C1243.76 166.091 1242.66 165.67 1241.76 164.83C1240.85 163.989 1240.39 162.977 1240.39 161.795C1240.39 160.614 1240.85 159.602 1241.76 158.761C1242.66 157.92 1243.76 157.5 1245.03 157.5C1246.31 157.5 1247.4 157.92 1248.3 158.761C1249.21 159.602 1249.66 160.614 1249.66 161.795C1249.66 162.977 1249.21 163.989 1248.3 164.83C1247.4 165.67 1246.31 166.091 1245.03 166.091ZM1267.07 195.477C1264.28 195.477 1261.87 194.943 1259.85 193.875C1257.83 192.795 1256.28 191.25 1255.19 189.239C1254.11 187.216 1253.57 184.795 1253.57 181.977C1253.57 179.273 1254.12 176.909 1255.21 174.886C1256.3 172.864 1257.84 171.29 1259.83 170.165C1261.82 169.04 1264.16 168.477 1266.87 168.477C1268.85 168.477 1270.63 168.784 1272.24 169.398C1273.84 170.011 1275.21 170.903 1276.35 172.074C1277.48 173.233 1278.36 174.642 1278.97 176.301C1279.58 177.96 1279.89 179.83 1279.89 181.909V184.091H1256.5V178.909H1271.23C1271.22 178.159 1271.03 177.5 1270.65 176.932C1270.29 176.352 1269.79 175.903 1269.17 175.585C1268.56 175.256 1267.86 175.091 1267.07 175.091C1266.31 175.091 1265.61 175.256 1264.98 175.585C1264.34 175.903 1263.83 176.347 1263.44 176.915C1263.07 177.483 1262.87 178.148 1262.85 178.909V184.5C1262.85 185.341 1263.02 186.091 1263.37 186.75C1263.73 187.409 1264.23 187.926 1264.89 188.301C1265.55 188.676 1266.35 188.864 1267.28 188.864C1267.92 188.864 1268.52 188.773 1269.05 188.591C1269.6 188.409 1270.06 188.148 1270.45 187.807C1270.83 187.455 1271.12 187.034 1271.3 186.545H1279.89C1279.6 188.364 1278.9 189.943 1277.79 191.284C1276.69 192.614 1275.23 193.648 1273.41 194.386C1271.61 195.114 1269.49 195.477 1267.07 195.477ZM1293.14 180.273V195H1283.73V168.818H1292.66V173.795H1292.93C1293.5 172.136 1294.5 170.835 1295.93 169.892C1297.38 168.949 1299.06 168.477 1300.98 168.477C1302.83 168.477 1304.44 168.903 1305.8 169.756C1307.18 170.597 1308.24 171.756 1308.99 173.233C1309.75 174.71 1310.13 176.398 1310.12 178.295V195H1300.71V180.273C1300.72 178.977 1300.39 177.96 1299.72 177.222C1299.06 176.483 1298.14 176.114 1296.96 176.114C1296.18 176.114 1295.51 176.284 1294.93 176.625C1294.36 176.955 1293.92 177.432 1293.62 178.057C1293.31 178.67 1293.15 179.409 1293.14 180.273ZM1330.38 168.818V175.636H1313.12V168.818H1330.38ZM1316.47 162.545H1325.88V186.58C1325.88 186.943 1325.94 187.25 1326.06 187.5C1326.19 187.739 1326.38 187.92 1326.64 188.045C1326.9 188.159 1327.24 188.216 1327.65 188.216C1327.93 188.216 1328.26 188.182 1328.64 188.114C1329.02 188.045 1329.31 187.989 1329.49 187.943L1330.85 194.557C1330.43 194.682 1329.83 194.835 1329.05 195.017C1328.27 195.199 1327.35 195.318 1326.28 195.375C1324.13 195.489 1322.31 195.267 1320.85 194.71C1319.38 194.142 1318.28 193.25 1317.54 192.034C1316.8 190.818 1316.44 189.295 1316.47 187.466V162.545ZM1346.48 195.477C1343.68 195.477 1341.27 194.943 1339.25 193.875C1337.24 192.795 1335.69 191.25 1334.6 189.239C1333.52 187.216 1332.98 184.795 1332.98 181.977C1332.98 179.273 1333.52 176.909 1334.62 174.886C1335.71 172.864 1337.25 171.29 1339.23 170.165C1341.22 169.04 1343.57 168.477 1346.27 168.477C1348.25 168.477 1350.04 168.784 1351.64 169.398C1353.25 170.011 1354.62 170.903 1355.75 172.074C1356.89 173.233 1357.76 174.642 1358.38 176.301C1358.99 177.96 1359.3 179.83 1359.3 181.909V184.091H1335.91V178.909H1350.64C1350.63 178.159 1350.43 177.5 1350.06 176.932C1349.69 176.352 1349.2 175.903 1348.58 175.585C1347.96 175.256 1347.26 175.091 1346.48 175.091C1345.72 175.091 1345.02 175.256 1344.38 175.585C1343.75 175.903 1343.23 176.347 1342.85 176.915C1342.47 177.483 1342.27 178.148 1342.25 178.909V184.5C1342.25 185.341 1342.43 186.091 1342.78 186.75C1343.13 187.409 1343.64 187.926 1344.3 188.301C1344.96 188.676 1345.75 188.864 1346.68 188.864C1347.33 188.864 1347.92 188.773 1348.46 188.591C1349 188.409 1349.47 188.148 1349.85 187.807C1350.24 187.455 1350.52 187.034 1350.71 186.545H1359.3C1359 188.364 1358.3 189.943 1357.2 191.284C1356.1 192.614 1354.64 193.648 1352.82 194.386C1351.01 195.114 1348.9 195.477 1346.48 195.477ZM1387.07 177.341H1378.41C1378.36 176.807 1378.18 176.347 1377.85 175.96C1377.52 175.574 1377.09 175.278 1376.57 175.074C1376.06 174.858 1375.49 174.75 1374.86 174.75C1374.06 174.75 1373.36 174.898 1372.78 175.193C1372.2 175.489 1371.92 175.909 1371.93 176.455C1371.92 176.841 1372.09 177.199 1372.43 177.528C1372.78 177.858 1373.45 178.114 1374.45 178.295L1379.77 179.25C1382.45 179.739 1384.45 180.562 1385.76 181.722C1387.07 182.869 1387.74 184.409 1387.75 186.341C1387.74 188.205 1387.18 189.824 1386.08 191.199C1384.99 192.562 1383.49 193.619 1381.6 194.369C1379.71 195.108 1377.56 195.477 1375.14 195.477C1371.14 195.477 1368.01 194.659 1365.74 193.023C1363.49 191.386 1362.24 189.227 1361.98 186.545H1371.32C1371.44 187.375 1371.85 188.017 1372.55 188.472C1373.25 188.915 1374.14 189.136 1375.2 189.136C1376.07 189.136 1376.78 188.989 1377.34 188.693C1377.9 188.398 1378.19 187.977 1378.2 187.432C1378.19 186.932 1377.94 186.534 1377.45 186.239C1376.98 185.943 1376.23 185.705 1375.2 185.523L1370.57 184.705C1367.9 184.239 1365.9 183.352 1364.57 182.045C1363.24 180.739 1362.58 179.057 1362.59 177C1362.58 175.182 1363.06 173.642 1364.02 172.381C1365 171.108 1366.39 170.142 1368.2 169.483C1370.02 168.812 1372.17 168.477 1374.66 168.477C1378.44 168.477 1381.43 169.261 1383.61 170.83C1385.8 172.398 1386.95 174.568 1387.07 177.341ZM1396.47 195.545C1395.15 195.545 1394.02 195.085 1393.08 194.165C1392.14 193.233 1391.68 192.102 1391.7 190.773C1391.68 189.477 1392.14 188.369 1393.08 187.449C1394.02 186.528 1395.15 186.068 1396.47 186.068C1397.72 186.068 1398.82 186.528 1399.78 187.449C1400.74 188.369 1401.23 189.477 1401.24 190.773C1401.23 191.659 1401 192.466 1400.54 193.193C1400.1 193.909 1399.52 194.483 1398.8 194.915C1398.09 195.335 1397.31 195.545 1396.47 195.545Z" fill="white"/>
<path d="M93.3636 196V126.182H118.455V196H93.3636ZM105.909 118.909C102.515 118.909 99.6061 117.788 97.1818 115.545C94.7576 113.303 93.5455 110.606 93.5455 107.455C93.5455 104.303 94.7576 101.606 97.1818 99.3636C99.6061 97.1212 102.515 96 105.909 96C109.333 96 112.242 97.1212 114.636 99.3636C117.061 101.606 118.273 104.303 118.273 107.455C118.273 110.606 117.061 113.303 114.636 115.545C112.242 117.788 109.333 118.909 105.909 118.909ZM158.886 196L131.432 102.909H159.614L172.341 160.182H173.068L188.159 102.909H210.341L225.432 160.364H226.159L238.886 102.909H267.068L239.614 196H215.432L199.614 144H198.886L183.068 196H158.886ZM359.557 149.455C359.557 159.818 357.542 168.561 353.511 175.682C349.481 182.773 344.042 188.152 337.193 191.818C330.345 195.455 322.708 197.273 314.284 197.273C305.799 197.273 298.133 195.439 291.284 191.773C284.466 188.076 279.042 182.682 275.011 175.591C271.011 168.47 269.011 159.758 269.011 149.455C269.011 139.091 271.011 130.364 275.011 123.273C279.042 116.152 284.466 110.773 291.284 107.136C298.133 103.47 305.799 101.636 314.284 101.636C322.708 101.636 330.345 103.47 337.193 107.136C344.042 110.773 349.481 116.152 353.511 123.273C357.542 130.364 359.557 139.091 359.557 149.455ZM333.557 149.455C333.557 143.879 332.814 139.182 331.33 135.364C329.875 131.515 327.708 128.606 324.83 126.636C321.981 124.636 318.466 123.636 314.284 123.636C310.102 123.636 306.572 124.636 303.693 126.636C300.845 128.606 298.678 131.515 297.193 135.364C295.739 139.182 295.011 143.879 295.011 149.455C295.011 155.03 295.739 159.742 297.193 163.591C298.678 167.409 300.845 170.318 303.693 172.318C306.572 174.288 310.102 175.273 314.284 175.273C318.466 175.273 321.981 174.288 324.83 172.318C327.708 170.318 329.875 167.409 331.33 163.591C332.814 159.742 333.557 155.03 333.557 149.455ZM371.25 196V102.909H411.432C418.341 102.909 424.386 104.167 429.568 106.682C434.75 109.197 438.78 112.818 441.659 117.545C444.538 122.273 445.977 127.939 445.977 134.545C445.977 141.212 444.492 146.833 441.523 151.409C438.583 155.985 434.447 159.439 429.114 161.773C423.811 164.106 417.614 165.273 410.523 165.273H386.523V145.636H405.432C408.402 145.636 410.932 145.273 413.023 144.545C415.144 143.788 416.765 142.591 417.886 140.955C419.038 139.318 419.614 137.182 419.614 134.545C419.614 131.879 419.038 129.712 417.886 128.045C416.765 126.348 415.144 125.106 413.023 124.318C410.932 123.5 408.402 123.091 405.432 123.091H396.523V196H371.25ZM425.795 153.273L449.068 196H421.614L398.886 153.273H425.795ZM456.75 196V102.909H482.023V140.545H483.295L511.295 102.909H540.75L509.295 144.364L541.477 196H511.295L490.386 161.091L482.023 172V196H456.75Z" fill="#F2CB05"/>
</svg>
