<svg width="1440" height="299" viewBox="0 0 1440 299" fill="none" xmlns="http://www.w3.org/2000/svg">
<rect width="1440" height="299" fill="#021B49"/>
<path d="M618.318 137H608.091L619.614 102.091H632.568L644.091 137H633.864L626.227 111.705H625.955L618.318 137ZM616.409 123.227H635.636V130.318H616.409V123.227ZM657.152 146.818V110.818H666.493V115.386H666.697C667.038 114.5 667.538 113.687 668.197 112.949C668.857 112.199 669.675 111.602 670.652 111.159C671.629 110.705 672.766 110.477 674.061 110.477C675.788 110.477 677.43 110.938 678.987 111.858C680.555 112.778 681.828 114.227 682.805 116.205C683.794 118.182 684.288 120.75 684.288 123.909C684.288 126.932 683.817 129.437 682.874 131.426C681.942 133.415 680.692 134.898 679.124 135.875C677.567 136.852 675.857 137.341 673.993 137.341C672.766 137.341 671.669 137.142 670.703 136.744C669.749 136.335 668.93 135.784 668.249 135.091C667.578 134.386 667.061 133.591 666.697 132.705H666.561V146.818H657.152ZM666.357 123.909C666.357 125.182 666.521 126.284 666.851 127.216C667.192 128.136 667.669 128.852 668.283 129.364C668.908 129.864 669.652 130.114 670.516 130.114C671.379 130.114 672.112 129.869 672.714 129.381C673.328 128.881 673.794 128.17 674.112 127.25C674.442 126.318 674.607 125.205 674.607 123.909C674.607 122.614 674.442 121.506 674.112 120.585C673.794 119.653 673.328 118.943 672.714 118.455C672.112 117.955 671.379 117.705 670.516 117.705C669.652 117.705 668.908 117.955 668.283 118.455C667.669 118.943 667.192 119.653 666.851 120.585C666.521 121.506 666.357 122.614 666.357 123.909ZM688.23 137V110.818H697.366V115.795H697.639C698.116 113.955 698.872 112.608 699.906 111.756C700.952 110.903 702.173 110.477 703.571 110.477C703.98 110.477 704.384 110.511 704.781 110.58C705.19 110.636 705.582 110.722 705.957 110.835V118.864C705.491 118.705 704.918 118.585 704.236 118.506C703.554 118.426 702.969 118.386 702.48 118.386C701.56 118.386 700.73 118.597 699.991 119.017C699.264 119.426 698.69 120.006 698.27 120.756C697.849 121.494 697.639 122.364 697.639 123.364V137H688.23ZM709.043 137V110.818H718.452V137H709.043ZM713.747 108.091C712.474 108.091 711.384 107.67 710.474 106.83C709.565 105.989 709.111 104.977 709.111 103.795C709.111 102.614 709.565 101.602 710.474 100.761C711.384 99.9205 712.474 99.5 713.747 99.5C715.031 99.5 716.122 99.9205 717.02 100.761C717.929 101.602 718.384 102.614 718.384 103.795C718.384 104.977 717.929 105.989 717.02 106.83C716.122 107.67 715.031 108.091 713.747 108.091ZM723.246 137V110.818H732.178V115.795H732.45C732.996 114.159 733.928 112.864 735.246 111.909C736.564 110.955 738.132 110.477 739.95 110.477C741.791 110.477 743.376 110.966 744.706 111.943C746.036 112.909 746.837 114.193 747.109 115.795H747.382C747.825 114.193 748.768 112.909 750.212 111.943C751.655 110.966 753.348 110.477 755.291 110.477C757.803 110.477 759.837 111.284 761.393 112.898C762.962 114.511 763.746 116.659 763.746 119.341V137H754.337V121.727C754.337 120.58 754.047 119.682 753.467 119.034C752.888 118.375 752.109 118.045 751.132 118.045C750.166 118.045 749.399 118.375 748.831 119.034C748.274 119.682 747.996 120.58 747.996 121.727V137H738.996V121.727C738.996 120.58 738.706 119.682 738.126 119.034C737.547 118.375 736.768 118.045 735.791 118.045C735.143 118.045 734.587 118.193 734.121 118.489C733.655 118.784 733.291 119.21 733.03 119.767C732.78 120.312 732.655 120.966 732.655 121.727V137H723.246ZM780.932 137.477C778.136 137.477 775.727 136.943 773.705 135.875C771.693 134.795 770.142 133.25 769.051 131.239C767.972 129.216 767.432 126.795 767.432 123.977C767.432 121.273 767.977 118.909 769.068 116.886C770.159 114.864 771.699 113.29 773.688 112.165C775.676 111.04 778.023 110.477 780.727 110.477C782.705 110.477 784.494 110.784 786.097 111.398C787.699 112.011 789.068 112.903 790.205 114.074C791.341 115.233 792.216 116.642 792.83 118.301C793.443 119.96 793.75 121.83 793.75 123.909V126.091H770.364V120.909H785.091C785.08 120.159 784.886 119.5 784.511 118.932C784.148 118.352 783.653 117.903 783.028 117.585C782.415 117.256 781.716 117.091 780.932 117.091C780.17 117.091 779.472 117.256 778.835 117.585C778.199 117.903 777.688 118.347 777.301 118.915C776.926 119.483 776.727 120.148 776.705 120.909V126.5C776.705 127.341 776.881 128.091 777.233 128.75C777.585 129.409 778.091 129.926 778.75 130.301C779.409 130.676 780.205 130.864 781.136 130.864C781.784 130.864 782.375 130.773 782.909 130.591C783.455 130.409 783.92 130.148 784.307 129.807C784.693 129.455 784.977 129.034 785.159 128.545H793.75C793.455 130.364 792.756 131.943 791.653 133.284C790.551 134.614 789.091 135.648 787.273 136.386C785.466 137.114 783.352 137.477 780.932 137.477ZM797.589 137V110.818H806.999V137H797.589ZM802.294 108.091C801.021 108.091 799.93 107.67 799.021 106.83C798.112 105.989 797.658 104.977 797.658 103.795C797.658 102.614 798.112 101.602 799.021 100.761C799.93 99.9205 801.021 99.5 802.294 99.5C803.578 99.5 804.669 99.9205 805.567 100.761C806.476 101.602 806.93 102.614 806.93 103.795C806.93 104.977 806.476 105.989 805.567 106.83C804.669 107.67 803.578 108.091 802.294 108.091ZM811.793 137V110.818H820.929V115.795H821.202C821.679 113.955 822.435 112.608 823.469 111.756C824.514 110.903 825.736 110.477 827.134 110.477C827.543 110.477 827.946 110.511 828.344 110.58C828.753 110.636 829.145 110.722 829.52 110.835V118.864C829.054 118.705 828.48 118.585 827.798 118.506C827.116 118.426 826.531 118.386 826.043 118.386C825.122 118.386 824.293 118.597 823.554 119.017C822.827 119.426 822.253 120.006 821.832 120.756C821.412 121.494 821.202 122.364 821.202 123.364V137H811.793ZM838.682 137.409C837.011 137.409 835.534 137.136 834.25 136.591C832.977 136.034 831.977 135.193 831.25 134.068C830.523 132.943 830.159 131.511 830.159 129.773C830.159 128.341 830.403 127.119 830.892 126.108C831.381 125.085 832.062 124.25 832.938 123.602C833.812 122.955 834.83 122.46 835.989 122.119C837.159 121.778 838.42 121.557 839.773 121.455C841.239 121.341 842.415 121.205 843.301 121.045C844.199 120.875 844.847 120.642 845.244 120.347C845.642 120.04 845.841 119.636 845.841 119.136V119.068C845.841 118.386 845.58 117.864 845.057 117.5C844.534 117.136 843.864 116.955 843.045 116.955C842.148 116.955 841.415 117.153 840.847 117.551C840.29 117.937 839.955 118.534 839.841 119.341H831.182C831.295 117.75 831.801 116.284 832.699 114.943C833.608 113.591 834.932 112.511 836.67 111.705C838.409 110.886 840.58 110.477 843.182 110.477C845.057 110.477 846.739 110.699 848.227 111.142C849.716 111.574 850.983 112.182 852.028 112.966C853.074 113.739 853.869 114.648 854.415 115.693C854.972 116.727 855.25 117.852 855.25 119.068V137H846.455V133.318H846.25C845.727 134.295 845.091 135.085 844.341 135.688C843.602 136.29 842.756 136.727 841.801 137C840.858 137.273 839.818 137.409 838.682 137.409ZM841.75 131.477C842.466 131.477 843.136 131.33 843.761 131.034C844.398 130.739 844.915 130.312 845.312 129.756C845.71 129.199 845.909 128.523 845.909 127.727V125.545C845.659 125.648 845.392 125.744 845.108 125.835C844.835 125.926 844.54 126.011 844.222 126.091C843.915 126.17 843.585 126.244 843.233 126.312C842.892 126.381 842.534 126.443 842.159 126.5C841.432 126.614 840.835 126.801 840.369 127.062C839.915 127.312 839.574 127.625 839.347 128C839.131 128.364 839.023 128.773 839.023 129.227C839.023 129.955 839.278 130.511 839.79 130.898C840.301 131.284 840.955 131.477 841.75 131.477ZM869.308 146.818V110.818H878.649V115.386H878.854C879.195 114.5 879.695 113.687 880.354 112.949C881.013 112.199 881.831 111.602 882.808 111.159C883.786 110.705 884.922 110.477 886.217 110.477C887.945 110.477 889.587 110.938 891.143 111.858C892.712 112.778 893.984 114.227 894.962 116.205C895.95 118.182 896.445 120.75 896.445 123.909C896.445 126.932 895.973 129.437 895.03 131.426C894.098 133.415 892.848 134.898 891.28 135.875C889.723 136.852 888.013 137.341 886.149 137.341C884.922 137.341 883.825 137.142 882.859 136.744C881.905 136.335 881.087 135.784 880.405 135.091C879.734 134.386 879.217 133.591 878.854 132.705H878.717V146.818H869.308ZM878.513 123.909C878.513 125.182 878.678 126.284 879.007 127.216C879.348 128.136 879.825 128.852 880.439 129.364C881.064 129.864 881.808 130.114 882.672 130.114C883.536 130.114 884.268 129.869 884.871 129.381C885.484 128.881 885.95 128.17 886.268 127.25C886.598 126.318 886.763 125.205 886.763 123.909C886.763 122.614 886.598 121.506 886.268 120.585C885.95 119.653 885.484 118.943 884.871 118.455C884.268 117.955 883.536 117.705 882.672 117.705C881.808 117.705 881.064 117.955 880.439 118.455C879.825 118.943 879.348 119.653 879.007 120.585C878.678 121.506 878.513 122.614 878.513 123.909ZM909.795 102.091V137H900.386V102.091H909.795ZM921.885 137.409C920.214 137.409 918.737 137.136 917.453 136.591C916.18 136.034 915.18 135.193 914.453 134.068C913.726 132.943 913.362 131.511 913.362 129.773C913.362 128.341 913.607 127.119 914.095 126.108C914.584 125.085 915.266 124.25 916.141 123.602C917.016 122.955 918.033 122.46 919.192 122.119C920.362 121.778 921.624 121.557 922.976 121.455C924.442 121.341 925.618 121.205 926.504 121.045C927.402 120.875 928.05 120.642 928.447 120.347C928.845 120.04 929.044 119.636 929.044 119.136V119.068C929.044 118.386 928.783 117.864 928.26 117.5C927.737 117.136 927.067 116.955 926.249 116.955C925.351 116.955 924.618 117.153 924.05 117.551C923.493 117.937 923.158 118.534 923.044 119.341H914.385C914.499 117.75 915.004 116.284 915.902 114.943C916.811 113.591 918.135 112.511 919.874 111.705C921.612 110.886 923.783 110.477 926.385 110.477C928.26 110.477 929.942 110.699 931.43 111.142C932.919 111.574 934.186 112.182 935.232 112.966C936.277 113.739 937.072 114.648 937.618 115.693C938.175 116.727 938.453 117.852 938.453 119.068V137H929.658V133.318H929.453C928.93 134.295 928.294 135.085 927.544 135.688C926.805 136.29 925.959 136.727 925.004 137C924.061 137.273 923.021 137.409 921.885 137.409ZM924.953 131.477C925.669 131.477 926.339 131.33 926.964 131.034C927.601 130.739 928.118 130.312 928.516 129.756C928.913 129.199 929.112 128.523 929.112 127.727V125.545C928.862 125.648 928.595 125.744 928.311 125.835C928.038 125.926 927.743 126.011 927.425 126.091C927.118 126.17 926.788 126.244 926.436 126.312C926.095 126.381 925.737 126.443 925.362 126.5C924.635 126.614 924.038 126.801 923.572 127.062C923.118 127.312 922.777 127.625 922.55 128C922.334 128.364 922.226 128.773 922.226 129.227C922.226 129.955 922.482 130.511 922.993 130.898C923.504 131.284 924.158 131.477 924.953 131.477ZM958.562 110.818V117.636H941.312V110.818H958.562ZM944.653 104.545H954.062V128.58C954.062 128.943 954.125 129.25 954.25 129.5C954.375 129.739 954.568 129.92 954.83 130.045C955.091 130.159 955.426 130.216 955.835 130.216C956.119 130.216 956.449 130.182 956.824 130.114C957.21 130.045 957.494 129.989 957.676 129.943L959.04 136.557C958.619 136.682 958.017 136.835 957.233 137.017C956.46 137.199 955.54 137.318 954.472 137.375C952.313 137.489 950.5 137.267 949.034 136.71C947.568 136.142 946.466 135.25 945.727 134.034C944.989 132.818 944.631 131.295 944.653 129.466V104.545ZM969.697 137.409C968.027 137.409 966.55 137.136 965.266 136.591C963.993 136.034 962.993 135.193 962.266 134.068C961.538 132.943 961.175 131.511 961.175 129.773C961.175 128.341 961.419 127.119 961.908 126.108C962.396 125.085 963.078 124.25 963.953 123.602C964.828 122.955 965.845 122.46 967.004 122.119C968.175 121.778 969.436 121.557 970.788 121.455C972.254 121.341 973.43 121.205 974.317 121.045C975.214 120.875 975.862 120.642 976.26 120.347C976.658 120.04 976.857 119.636 976.857 119.136V119.068C976.857 118.386 976.595 117.864 976.072 117.5C975.55 117.136 974.879 116.955 974.061 116.955C973.163 116.955 972.43 117.153 971.862 117.551C971.305 117.937 970.97 118.534 970.857 119.341H962.197C962.311 117.75 962.817 116.284 963.714 114.943C964.624 113.591 965.947 112.511 967.686 111.705C969.425 110.886 971.595 110.477 974.197 110.477C976.072 110.477 977.754 110.699 979.243 111.142C980.732 111.574 981.999 112.182 983.044 112.966C984.089 113.739 984.885 114.648 985.43 115.693C985.987 116.727 986.266 117.852 986.266 119.068V137H977.47V133.318H977.266C976.743 134.295 976.107 135.085 975.357 135.688C974.618 136.29 973.771 136.727 972.817 137C971.874 137.273 970.834 137.409 969.697 137.409ZM972.766 131.477C973.482 131.477 974.152 131.33 974.777 131.034C975.413 130.739 975.93 130.312 976.328 129.756C976.726 129.199 976.925 128.523 976.925 127.727V125.545C976.675 125.648 976.408 125.744 976.124 125.835C975.851 125.926 975.555 126.011 975.237 126.091C974.93 126.17 974.601 126.244 974.249 126.312C973.908 126.381 973.55 126.443 973.175 126.5C972.447 126.614 971.851 126.801 971.385 127.062C970.93 127.312 970.589 127.625 970.362 128C970.146 128.364 970.038 128.773 970.038 129.227C970.038 129.955 970.294 130.511 970.805 130.898C971.317 131.284 971.97 131.477 972.766 131.477ZM1006.44 110.818V117.636H988.92V110.818H1006.44ZM992.261 137V110.068C992.261 107.909 992.648 106.119 993.42 104.699C994.193 103.278 995.284 102.216 996.693 101.511C998.102 100.807 999.761 100.455 1001.67 100.455C1002.86 100.455 1004.02 100.545 1005.15 100.727C1006.28 100.909 1007.13 101.068 1007.67 101.205L1006.31 107.955C1005.97 107.852 1005.57 107.773 1005.11 107.716C1004.66 107.648 1004.26 107.614 1003.92 107.614C1003.03 107.614 1002.44 107.801 1002.13 108.176C1001.82 108.551 1001.67 109.045 1001.67 109.659V137H992.261ZM1021.89 137.477C1019.05 137.477 1016.62 136.915 1014.6 135.79C1012.57 134.653 1011.02 133.074 1009.94 131.051C1008.86 129.017 1008.32 126.659 1008.32 123.977C1008.32 121.295 1008.86 118.943 1009.94 116.92C1011.02 114.886 1012.57 113.307 1014.6 112.182C1016.62 111.045 1019.05 110.477 1021.89 110.477C1024.73 110.477 1027.16 111.045 1029.19 112.182C1031.21 113.307 1032.76 114.886 1033.84 116.92C1034.92 118.943 1035.46 121.295 1035.46 123.977C1035.46 126.659 1034.92 129.017 1033.84 131.051C1032.76 133.074 1031.21 134.653 1029.19 135.79C1027.16 136.915 1024.73 137.477 1021.89 137.477ZM1021.96 130.523C1022.75 130.523 1023.44 130.256 1024.02 129.722C1024.6 129.187 1025.05 128.426 1025.37 127.438C1025.69 126.449 1025.85 125.273 1025.85 123.909C1025.85 122.534 1025.69 121.358 1025.37 120.381C1025.05 119.392 1024.6 118.631 1024.02 118.097C1023.44 117.562 1022.75 117.295 1021.96 117.295C1021.12 117.295 1020.4 117.562 1019.79 118.097C1019.19 118.631 1018.73 119.392 1018.41 120.381C1018.1 121.358 1017.94 122.534 1017.94 123.909C1017.94 125.273 1018.1 126.449 1018.41 127.438C1018.73 128.426 1019.19 129.187 1019.79 129.722C1020.4 130.256 1021.12 130.523 1021.96 130.523ZM1039.28 137V110.818H1048.41V115.795H1048.69C1049.16 113.955 1049.92 112.608 1050.95 111.756C1052 110.903 1053.22 110.477 1054.62 110.477C1055.03 110.477 1055.43 110.511 1055.83 110.58C1056.24 110.636 1056.63 110.722 1057 110.835V118.864C1056.54 118.705 1055.96 118.585 1055.28 118.506C1054.6 118.426 1054.02 118.386 1053.53 118.386C1052.61 118.386 1051.78 118.597 1051.04 119.017C1050.31 119.426 1049.74 120.006 1049.32 120.756C1048.9 121.494 1048.69 122.364 1048.69 123.364V137H1039.28ZM1060.09 137V110.818H1069.02V115.795H1069.29C1069.84 114.159 1070.77 112.864 1072.09 111.909C1073.41 110.955 1074.98 110.477 1076.79 110.477C1078.63 110.477 1080.22 110.966 1081.55 111.943C1082.88 112.909 1083.68 114.193 1083.95 115.795H1084.23C1084.67 114.193 1085.61 112.909 1087.06 111.943C1088.5 110.966 1090.19 110.477 1092.13 110.477C1094.65 110.477 1096.68 111.284 1098.24 112.898C1099.81 114.511 1100.59 116.659 1100.59 119.341V137H1091.18V121.727C1091.18 120.58 1090.89 119.682 1090.31 119.034C1089.73 118.375 1088.95 118.045 1087.98 118.045C1087.01 118.045 1086.24 118.375 1085.67 119.034C1085.12 119.682 1084.84 120.58 1084.84 121.727V137H1075.84V121.727C1075.84 120.58 1075.55 119.682 1074.97 119.034C1074.39 118.375 1073.61 118.045 1072.63 118.045C1071.99 118.045 1071.43 118.193 1070.96 118.489C1070.5 118.784 1070.13 119.21 1069.87 119.767C1069.62 120.312 1069.5 120.966 1069.5 121.727V137H1060.09ZM1112.53 137.409C1110.86 137.409 1109.38 137.136 1108.09 136.591C1106.82 136.034 1105.82 135.193 1105.09 134.068C1104.37 132.943 1104 131.511 1104 129.773C1104 128.341 1104.25 127.119 1104.74 126.108C1105.22 125.085 1105.91 124.25 1106.78 123.602C1107.66 122.955 1108.67 122.46 1109.83 122.119C1111 121.778 1112.26 121.557 1113.62 121.455C1115.08 121.341 1116.26 121.205 1117.14 121.045C1118.04 120.875 1118.69 120.642 1119.09 120.347C1119.49 120.04 1119.68 119.636 1119.68 119.136V119.068C1119.68 118.386 1119.42 117.864 1118.9 117.5C1118.38 117.136 1117.71 116.955 1116.89 116.955C1115.99 116.955 1115.26 117.153 1114.69 117.551C1114.13 117.937 1113.8 118.534 1113.68 119.341H1105.03C1105.14 117.75 1105.64 116.284 1106.54 114.943C1107.45 113.591 1108.78 112.511 1110.51 111.705C1112.25 110.886 1114.42 110.477 1117.03 110.477C1118.9 110.477 1120.58 110.699 1122.07 111.142C1123.56 111.574 1124.83 112.182 1125.87 112.966C1126.92 113.739 1127.71 114.648 1128.26 115.693C1128.82 116.727 1129.09 117.852 1129.09 119.068V137H1120.3V133.318H1120.09C1119.57 134.295 1118.93 135.085 1118.18 135.688C1117.45 136.29 1116.6 136.727 1115.64 137C1114.7 137.273 1113.66 137.409 1112.53 137.409ZM1115.59 131.477C1116.31 131.477 1116.98 131.33 1117.61 131.034C1118.24 130.739 1118.76 130.312 1119.16 129.756C1119.55 129.199 1119.75 128.523 1119.75 127.727V125.545C1119.5 125.648 1119.24 125.744 1118.95 125.835C1118.68 125.926 1118.38 126.011 1118.07 126.091C1117.76 126.17 1117.43 126.244 1117.08 126.312C1116.74 126.381 1116.38 126.443 1116 126.5C1115.28 126.614 1114.68 126.801 1114.21 127.062C1113.76 127.312 1113.42 127.625 1113.19 128C1112.97 128.364 1112.87 128.773 1112.87 129.227C1112.87 129.955 1113.12 130.511 1113.63 130.898C1114.14 131.284 1114.8 131.477 1115.59 131.477ZM618.864 195.341C617 195.341 615.284 194.852 613.716 193.875C612.159 192.898 610.909 191.415 609.966 189.426C609.034 187.437 608.568 184.932 608.568 181.909C608.568 178.75 609.057 176.182 610.034 174.205C611.023 172.227 612.295 170.778 613.852 169.858C615.42 168.938 617.068 168.477 618.795 168.477C620.091 168.477 621.227 168.705 622.205 169.159C623.182 169.602 624 170.199 624.659 170.949C625.318 171.687 625.818 172.5 626.159 173.386H626.295V160.091H635.705V195H626.364V190.705H626.159C625.795 191.591 625.273 192.386 624.591 193.091C623.92 193.784 623.102 194.335 622.136 194.744C621.182 195.142 620.091 195.341 618.864 195.341ZM622.341 188.114C623.205 188.114 623.943 187.864 624.557 187.364C625.182 186.852 625.659 186.136 625.989 185.216C626.33 184.284 626.5 183.182 626.5 181.909C626.5 180.614 626.33 179.506 625.989 178.585C625.659 177.653 625.182 176.943 624.557 176.455C623.943 175.955 623.205 175.705 622.341 175.705C621.477 175.705 620.739 175.955 620.125 176.455C619.523 176.943 619.057 177.653 618.727 178.585C618.409 179.506 618.25 180.614 618.25 181.909C618.25 183.205 618.409 184.318 618.727 185.25C619.057 186.17 619.523 186.881 620.125 187.381C620.739 187.869 621.477 188.114 622.341 188.114ZM652.869 195.477C650.074 195.477 647.665 194.943 645.642 193.875C643.631 192.795 642.08 191.25 640.989 189.239C639.909 187.216 639.369 184.795 639.369 181.977C639.369 179.273 639.915 176.909 641.006 174.886C642.097 172.864 643.636 171.29 645.625 170.165C647.614 169.04 649.96 168.477 652.665 168.477C654.642 168.477 656.432 168.784 658.034 169.398C659.636 170.011 661.006 170.903 662.142 172.074C663.278 173.233 664.153 174.642 664.767 176.301C665.381 177.96 665.688 179.83 665.688 181.909V184.091H642.301V178.909H657.028C657.017 178.159 656.824 177.5 656.449 176.932C656.085 176.352 655.591 175.903 654.966 175.585C654.352 175.256 653.653 175.091 652.869 175.091C652.108 175.091 651.409 175.256 650.773 175.585C650.136 175.903 649.625 176.347 649.239 176.915C648.864 177.483 648.665 178.148 648.642 178.909V184.5C648.642 185.341 648.818 186.091 649.17 186.75C649.523 187.409 650.028 187.926 650.688 188.301C651.347 188.676 652.142 188.864 653.074 188.864C653.722 188.864 654.313 188.773 654.847 188.591C655.392 188.409 655.858 188.148 656.244 187.807C656.631 187.455 656.915 187.034 657.097 186.545H665.688C665.392 188.364 664.693 189.943 663.591 191.284C662.489 192.614 661.028 193.648 659.21 194.386C657.403 195.114 655.29 195.477 652.869 195.477ZM694.771 168.818V175.636H677.249V168.818H694.771ZM680.589 195V168.068C680.589 165.909 680.976 164.119 681.749 162.699C682.521 161.278 683.612 160.216 685.021 159.511C686.43 158.807 688.089 158.455 689.999 158.455C691.192 158.455 692.351 158.545 693.476 158.727C694.612 158.909 695.453 159.068 695.999 159.205L694.635 165.955C694.294 165.852 693.896 165.773 693.442 165.716C692.987 165.648 692.589 165.614 692.249 165.614C691.362 165.614 690.766 165.801 690.459 166.176C690.152 166.551 689.999 167.045 689.999 167.659V195H680.589ZM698.402 195V168.818H707.538V173.795H707.811C708.288 171.955 709.044 170.608 710.078 169.756C711.124 168.903 712.345 168.477 713.743 168.477C714.152 168.477 714.555 168.511 714.953 168.58C715.362 168.636 715.754 168.722 716.129 168.835V176.864C715.663 176.705 715.089 176.585 714.408 176.506C713.726 176.426 713.141 176.386 712.652 176.386C711.732 176.386 710.902 176.597 710.163 177.017C709.436 177.426 708.862 178.006 708.442 178.756C708.021 179.494 707.811 180.364 707.811 181.364V195H698.402ZM730.26 195.477C727.464 195.477 725.055 194.943 723.033 193.875C721.021 192.795 719.47 191.25 718.379 189.239C717.3 187.216 716.76 184.795 716.76 181.977C716.76 179.273 717.305 176.909 718.396 174.886C719.487 172.864 721.027 171.29 723.016 170.165C725.004 169.04 727.351 168.477 730.055 168.477C732.033 168.477 733.822 168.784 735.425 169.398C737.027 170.011 738.396 170.903 739.533 172.074C740.669 173.233 741.544 174.642 742.158 176.301C742.771 177.96 743.078 179.83 743.078 181.909V184.091H719.692V178.909H734.419C734.408 178.159 734.214 177.5 733.839 176.932C733.476 176.352 732.982 175.903 732.357 175.585C731.743 175.256 731.044 175.091 730.26 175.091C729.499 175.091 728.8 175.256 728.163 175.585C727.527 175.903 727.016 176.347 726.629 176.915C726.254 177.483 726.055 178.148 726.033 178.909V184.5C726.033 185.341 726.209 186.091 726.561 186.75C726.913 187.409 727.419 187.926 728.078 188.301C728.737 188.676 729.533 188.864 730.464 188.864C731.112 188.864 731.703 188.773 732.237 188.591C732.783 188.409 733.249 188.148 733.635 187.807C734.021 187.455 734.305 187.034 734.487 186.545H743.078C742.783 188.364 742.084 189.943 740.982 191.284C739.879 192.614 738.419 193.648 736.601 194.386C734.794 195.114 732.68 195.477 730.26 195.477ZM759.463 195.477C756.668 195.477 754.259 194.943 752.236 193.875C750.224 192.795 748.673 191.25 747.582 189.239C746.503 187.216 745.963 184.795 745.963 181.977C745.963 179.273 746.509 176.909 747.599 174.886C748.69 172.864 750.23 171.29 752.219 170.165C754.207 169.04 756.554 168.477 759.259 168.477C761.236 168.477 763.026 168.784 764.628 169.398C766.23 170.011 767.599 170.903 768.736 172.074C769.872 173.233 770.747 174.642 771.361 176.301C771.974 177.96 772.281 179.83 772.281 181.909V184.091H748.895V178.909H763.622C763.611 178.159 763.418 177.5 763.043 176.932C762.679 176.352 762.185 175.903 761.56 175.585C760.946 175.256 760.247 175.091 759.463 175.091C758.702 175.091 758.003 175.256 757.366 175.585C756.73 175.903 756.219 176.347 755.832 176.915C755.457 177.483 755.259 178.148 755.236 178.909V184.5C755.236 185.341 755.412 186.091 755.764 186.75C756.116 187.409 756.622 187.926 757.281 188.301C757.94 188.676 758.736 188.864 759.668 188.864C760.315 188.864 760.906 188.773 761.44 188.591C761.986 188.409 762.452 188.148 762.838 187.807C763.224 187.455 763.509 187.034 763.69 186.545H772.281C771.986 188.364 771.287 189.943 770.185 191.284C769.082 192.614 767.622 193.648 765.804 194.386C763.997 195.114 761.884 195.477 759.463 195.477ZM785.53 160.091V195H776.121V160.091H785.53ZM797.619 195.409C795.949 195.409 794.472 195.136 793.188 194.591C791.915 194.034 790.915 193.193 790.188 192.068C789.46 190.943 789.097 189.511 789.097 187.773C789.097 186.341 789.341 185.119 789.83 184.108C790.318 183.085 791 182.25 791.875 181.602C792.75 180.955 793.767 180.46 794.926 180.119C796.097 179.778 797.358 179.557 798.71 179.455C800.176 179.341 801.352 179.205 802.239 179.045C803.136 178.875 803.784 178.642 804.182 178.347C804.58 178.04 804.778 177.636 804.778 177.136V177.068C804.778 176.386 804.517 175.864 803.994 175.5C803.472 175.136 802.801 174.955 801.983 174.955C801.085 174.955 800.352 175.153 799.784 175.551C799.227 175.937 798.892 176.534 798.778 177.341H790.119C790.233 175.75 790.739 174.284 791.636 172.943C792.545 171.591 793.869 170.511 795.608 169.705C797.347 168.886 799.517 168.477 802.119 168.477C803.994 168.477 805.676 168.699 807.165 169.142C808.653 169.574 809.92 170.182 810.966 170.966C812.011 171.739 812.807 172.648 813.352 173.693C813.909 174.727 814.188 175.852 814.188 177.068V195H805.392V191.318H805.188C804.665 192.295 804.028 193.085 803.278 193.688C802.54 194.29 801.693 194.727 800.739 195C799.795 195.273 798.756 195.409 797.619 195.409ZM800.688 189.477C801.403 189.477 802.074 189.33 802.699 189.034C803.335 188.739 803.852 188.312 804.25 187.756C804.648 187.199 804.847 186.523 804.847 185.727V183.545C804.597 183.648 804.33 183.744 804.045 183.835C803.773 183.926 803.477 184.011 803.159 184.091C802.852 184.17 802.523 184.244 802.17 184.312C801.83 184.381 801.472 184.443 801.097 184.5C800.369 184.614 799.773 184.801 799.307 185.062C798.852 185.312 798.511 185.625 798.284 186C798.068 186.364 797.96 186.773 797.96 187.227C797.96 187.955 798.216 188.511 798.727 188.898C799.239 189.284 799.892 189.477 800.688 189.477ZM828.092 180.273V195H818.683V168.818H827.615V173.795H827.888C828.456 172.136 829.456 170.835 830.888 169.892C832.331 168.949 834.013 168.477 835.933 168.477C837.786 168.477 839.393 168.903 840.757 169.756C842.132 170.597 843.195 171.756 843.945 173.233C844.706 174.71 845.081 176.398 845.07 178.295V195H835.661V180.273C835.672 178.977 835.342 177.96 834.672 177.222C834.013 176.483 833.092 176.114 831.911 176.114C831.138 176.114 830.462 176.284 829.882 176.625C829.314 176.955 828.876 177.432 828.57 178.057C828.263 178.67 828.104 179.409 828.092 180.273ZM862.328 195.477C859.487 195.477 857.055 194.915 855.033 193.79C853.01 192.653 851.459 191.074 850.379 189.051C849.3 187.017 848.76 184.659 848.76 181.977C848.76 179.295 849.3 176.943 850.379 174.92C851.459 172.886 853.01 171.307 855.033 170.182C857.055 169.045 859.487 168.477 862.328 168.477C864.896 168.477 867.118 168.943 868.993 169.875C870.879 170.795 872.339 172.102 873.374 173.795C874.408 175.477 874.93 177.455 874.942 179.727H866.214C866.089 178.352 865.692 177.307 865.021 176.591C864.362 175.864 863.51 175.5 862.464 175.5C861.646 175.5 860.93 175.739 860.317 176.216C859.703 176.682 859.226 177.392 858.885 178.347C858.544 179.29 858.374 180.477 858.374 181.909C858.374 183.341 858.544 184.534 858.885 185.489C859.226 186.432 859.703 187.142 860.317 187.619C860.93 188.085 861.646 188.318 862.464 188.318C863.158 188.318 863.771 188.159 864.305 187.841C864.839 187.511 865.271 187.034 865.601 186.409C865.942 185.773 866.146 185 866.214 184.091H874.942C874.908 186.398 874.379 188.409 873.357 190.125C872.334 191.83 870.885 193.148 869.01 194.08C867.146 195.011 864.919 195.477 862.328 195.477ZM891.369 195.477C888.574 195.477 886.165 194.943 884.142 193.875C882.131 192.795 880.58 191.25 879.489 189.239C878.409 187.216 877.869 184.795 877.869 181.977C877.869 179.273 878.415 176.909 879.506 174.886C880.597 172.864 882.136 171.29 884.125 170.165C886.114 169.04 888.46 168.477 891.165 168.477C893.142 168.477 894.932 168.784 896.534 169.398C898.136 170.011 899.506 170.903 900.642 172.074C901.778 173.233 902.653 174.642 903.267 176.301C903.881 177.96 904.188 179.83 904.188 181.909V184.091H880.801V178.909H895.528C895.517 178.159 895.324 177.5 894.949 176.932C894.585 176.352 894.091 175.903 893.466 175.585C892.852 175.256 892.153 175.091 891.369 175.091C890.608 175.091 889.909 175.256 889.273 175.585C888.636 175.903 888.125 176.347 887.739 176.915C887.364 177.483 887.165 178.148 887.142 178.909V184.5C887.142 185.341 887.318 186.091 887.67 186.75C888.023 187.409 888.528 187.926 889.188 188.301C889.847 188.676 890.642 188.864 891.574 188.864C892.222 188.864 892.813 188.773 893.347 188.591C893.892 188.409 894.358 188.148 894.744 187.807C895.131 187.455 895.415 187.034 895.597 186.545H904.188C903.892 188.364 903.193 189.943 902.091 191.284C900.989 192.614 899.528 193.648 897.71 194.386C895.903 195.114 893.79 195.477 891.369 195.477ZM934.635 160.091V195H925.158V168.818H924.953L917.317 173.386V165.341L925.908 160.091H934.635ZM957.007 195.955C953.837 195.943 951.098 195.21 948.791 193.756C946.484 192.301 944.706 190.205 943.456 187.466C942.206 184.727 941.587 181.443 941.598 177.614C941.609 173.773 942.234 170.511 943.473 167.83C944.723 165.148 946.496 163.108 948.791 161.71C951.098 160.312 953.837 159.614 957.007 159.614C960.178 159.614 962.916 160.318 965.223 161.727C967.53 163.125 969.308 165.165 970.558 167.847C971.808 170.528 972.428 173.784 972.416 177.614C972.416 181.466 971.791 184.761 970.541 187.5C969.291 190.239 967.513 192.335 965.206 193.79C962.911 195.233 960.178 195.955 957.007 195.955ZM957.007 188.25C958.643 188.25 959.984 187.398 961.03 185.693C962.087 183.977 962.609 181.284 962.598 177.614C962.598 175.216 962.359 173.256 961.882 171.733C961.405 170.21 960.746 169.085 959.905 168.358C959.064 167.619 958.098 167.25 957.007 167.25C955.371 167.25 954.036 168.08 953.001 169.739C951.967 171.398 951.439 174.023 951.416 177.614C951.405 180.057 951.638 182.068 952.115 183.648C952.592 185.216 953.251 186.375 954.092 187.125C954.945 187.875 955.916 188.25 957.007 188.25ZM992.07 195.955C988.899 195.943 986.161 195.21 983.854 193.756C981.547 192.301 979.768 190.205 978.518 187.466C977.268 184.727 976.649 181.443 976.661 177.614C976.672 173.773 977.297 170.511 978.536 167.83C979.786 165.148 981.558 163.108 983.854 161.71C986.161 160.312 988.899 159.614 992.07 159.614C995.24 159.614 997.979 160.318 1000.29 161.727C1002.59 163.125 1004.37 165.165 1005.62 167.847C1006.87 170.528 1007.49 173.784 1007.48 177.614C1007.48 181.466 1006.85 184.761 1005.6 187.5C1004.35 190.239 1002.58 192.335 1000.27 193.79C997.973 195.233 995.24 195.955 992.07 195.955ZM992.07 188.25C993.706 188.25 995.047 187.398 996.092 185.693C997.149 183.977 997.672 181.284 997.661 177.614C997.661 175.216 997.422 173.256 996.945 171.733C996.467 170.21 995.808 169.085 994.967 168.358C994.126 167.619 993.161 167.25 992.07 167.25C990.433 167.25 989.098 168.08 988.064 169.739C987.03 171.398 986.501 174.023 986.479 177.614C986.467 180.057 986.7 182.068 987.178 183.648C987.655 185.216 988.314 186.375 989.155 187.125C990.007 187.875 990.979 188.25 992.07 188.25ZM1031.9 188.455V186.614C1031.9 185.136 1032.22 183.773 1032.86 182.523C1033.51 181.273 1034.44 180.267 1035.67 179.506C1036.9 178.744 1038.39 178.364 1040.15 178.364C1041.96 178.364 1043.48 178.739 1044.71 179.489C1045.94 180.239 1046.88 181.239 1047.52 182.489C1048.15 183.739 1048.47 185.114 1048.47 186.614V188.455C1048.47 189.932 1048.15 191.295 1047.5 192.545C1046.87 193.795 1045.93 194.801 1044.69 195.562C1043.45 196.324 1041.94 196.705 1040.15 196.705C1038.37 196.705 1036.87 196.324 1035.64 195.562C1034.41 194.801 1033.48 193.795 1032.84 192.545C1032.22 191.295 1031.9 189.932 1031.9 188.455ZM1037.84 186.614V188.455C1037.84 189.102 1038 189.744 1038.31 190.381C1038.64 191.006 1039.26 191.318 1040.15 191.318C1041.1 191.318 1041.72 191.011 1042.01 190.398C1042.32 189.784 1042.47 189.136 1042.47 188.455V186.614C1042.47 185.932 1042.33 185.273 1042.05 184.636C1041.76 184 1041.13 183.682 1040.15 183.682C1039.26 183.682 1038.64 184 1038.31 184.636C1038 185.273 1037.84 185.932 1037.84 186.614ZM1013.63 168.477V166.636C1013.63 165.136 1013.96 163.761 1014.6 162.511C1015.26 161.261 1016.21 160.261 1017.43 159.511C1018.66 158.761 1020.14 158.386 1021.88 158.386C1023.69 158.386 1025.21 158.761 1026.43 159.511C1027.67 160.261 1028.61 161.261 1029.25 162.511C1029.88 163.761 1030.2 165.136 1030.2 166.636V168.477C1030.2 169.977 1029.88 171.347 1029.23 172.585C1028.59 173.824 1027.65 174.812 1026.42 175.551C1025.18 176.29 1023.67 176.659 1021.88 176.659C1020.1 176.659 1018.59 176.284 1017.37 175.534C1016.14 174.784 1015.21 173.79 1014.57 172.551C1013.94 171.312 1013.63 169.955 1013.63 168.477ZM1019.63 166.636V168.477C1019.63 169.159 1019.79 169.807 1020.11 170.42C1020.43 171.034 1021.02 171.341 1021.88 171.341C1022.83 171.341 1023.44 171.034 1023.74 170.42C1024.05 169.807 1024.2 169.159 1024.2 168.477V166.636C1024.2 165.955 1024.06 165.295 1023.77 164.659C1023.49 164.023 1022.86 163.705 1021.88 163.705C1020.98 163.705 1020.38 164.034 1020.08 164.693C1019.78 165.341 1019.63 165.989 1019.63 166.636ZM1016.53 195L1040.53 160.091H1045.37L1021.37 195H1016.53ZM1064.17 195V160.091H1079.31C1081.97 160.091 1084.2 160.449 1086.01 161.165C1087.83 161.881 1089.19 162.892 1090.12 164.199C1091.05 165.506 1091.51 167.045 1091.51 168.818C1091.51 170.102 1091.23 171.273 1090.66 172.33C1090.1 173.386 1089.32 174.273 1088.31 174.989C1087.3 175.693 1086.12 176.182 1084.76 176.455V176.795C1086.26 176.852 1087.63 177.233 1088.85 177.938C1090.08 178.631 1091.06 179.591 1091.79 180.818C1092.51 182.034 1092.88 183.466 1092.88 185.114C1092.88 187.023 1092.38 188.722 1091.38 190.21C1090.39 191.699 1088.98 192.869 1087.15 193.722C1085.32 194.574 1083.14 195 1080.6 195H1064.17ZM1073.65 187.432H1078.08C1079.67 187.432 1080.87 187.136 1081.66 186.545C1082.46 185.943 1082.85 185.057 1082.85 183.886C1082.85 183.068 1082.67 182.375 1082.29 181.807C1081.92 181.239 1081.38 180.807 1080.69 180.511C1080.01 180.216 1079.18 180.068 1078.22 180.068H1073.65V187.432ZM1073.65 174.205H1077.54C1078.37 174.205 1079.1 174.074 1079.73 173.812C1080.37 173.551 1080.87 173.176 1081.22 172.688C1081.58 172.188 1081.76 171.58 1081.76 170.864C1081.76 169.784 1081.38 168.96 1080.6 168.392C1079.83 167.812 1078.85 167.523 1077.67 167.523H1073.65V174.205ZM1096.37 195V168.818H1105.51V173.795H1105.78C1106.26 171.955 1107.01 170.608 1108.05 169.756C1109.09 168.903 1110.31 168.477 1111.71 168.477C1112.12 168.477 1112.52 168.511 1112.92 168.58C1113.33 168.636 1113.72 168.722 1114.1 168.835V176.864C1113.63 176.705 1113.06 176.585 1112.38 176.506C1111.69 176.426 1111.11 176.386 1110.62 176.386C1109.7 176.386 1108.87 176.597 1108.13 177.017C1107.4 177.426 1106.83 178.006 1106.41 178.756C1105.99 179.494 1105.78 180.364 1105.78 181.364V195H1096.37ZM1123.26 195.409C1121.59 195.409 1120.11 195.136 1118.83 194.591C1117.56 194.034 1116.56 193.193 1115.83 192.068C1115.1 190.943 1114.74 189.511 1114.74 187.773C1114.74 186.341 1114.98 185.119 1115.47 184.108C1115.96 183.085 1116.64 182.25 1117.52 181.602C1118.39 180.955 1119.41 180.46 1120.57 180.119C1121.74 179.778 1123 179.557 1124.35 179.455C1125.82 179.341 1126.99 179.205 1127.88 179.045C1128.78 178.875 1129.42 178.642 1129.82 178.347C1130.22 178.04 1130.42 177.636 1130.42 177.136V177.068C1130.42 176.386 1130.16 175.864 1129.63 175.5C1129.11 175.136 1128.44 174.955 1127.62 174.955C1126.73 174.955 1125.99 175.153 1125.42 175.551C1124.87 175.937 1124.53 176.534 1124.42 177.341H1115.76C1115.87 175.75 1116.38 174.284 1117.28 172.943C1118.19 171.591 1119.51 170.511 1121.25 169.705C1122.99 168.886 1125.16 168.477 1127.76 168.477C1129.63 168.477 1131.32 168.699 1132.81 169.142C1134.29 169.574 1135.56 170.182 1136.61 170.966C1137.65 171.739 1138.45 172.648 1138.99 173.693C1139.55 174.727 1139.83 175.852 1139.83 177.068V195H1131.03V191.318H1130.83C1130.31 192.295 1129.67 193.085 1128.92 193.688C1128.18 194.29 1127.33 194.727 1126.38 195C1125.44 195.273 1124.4 195.409 1123.26 195.409ZM1126.33 189.477C1127.04 189.477 1127.71 189.33 1128.34 189.034C1128.98 188.739 1129.49 188.312 1129.89 187.756C1130.29 187.199 1130.49 186.523 1130.49 185.727V183.545C1130.24 183.648 1129.97 183.744 1129.69 183.835C1129.41 183.926 1129.12 184.011 1128.8 184.091C1128.49 184.17 1128.16 184.244 1127.81 184.312C1127.47 184.381 1127.11 184.443 1126.74 184.5C1126.01 184.614 1125.41 184.801 1124.95 185.062C1124.49 185.312 1124.15 185.625 1123.92 186C1123.71 186.364 1123.6 186.773 1123.6 187.227C1123.6 187.955 1123.86 188.511 1124.37 188.898C1124.88 189.284 1125.53 189.477 1126.33 189.477ZM1168.26 177.341H1159.6C1159.55 176.807 1159.36 176.347 1159.03 175.96C1158.7 175.574 1158.28 175.278 1157.76 175.074C1157.24 174.858 1156.68 174.75 1156.05 174.75C1155.24 174.75 1154.55 174.898 1153.97 175.193C1153.39 175.489 1153.11 175.909 1153.12 176.455C1153.11 176.841 1153.27 177.199 1153.61 177.528C1153.97 177.858 1154.64 178.114 1155.64 178.295L1160.96 179.25C1163.64 179.739 1165.64 180.562 1166.94 181.722C1168.26 182.869 1168.93 184.409 1168.94 186.341C1168.93 188.205 1168.37 189.824 1167.27 191.199C1166.18 192.562 1164.68 193.619 1162.78 194.369C1160.9 195.108 1158.74 195.477 1156.32 195.477C1152.32 195.477 1149.19 194.659 1146.93 193.023C1144.68 191.386 1143.43 189.227 1143.16 186.545H1152.51C1152.63 187.375 1153.04 188.017 1153.73 188.472C1154.44 188.915 1155.32 189.136 1156.39 189.136C1157.26 189.136 1157.97 188.989 1158.52 188.693C1159.09 188.398 1159.38 187.977 1159.39 187.432C1159.38 186.932 1159.13 186.534 1158.64 186.239C1158.16 185.943 1157.41 185.705 1156.39 185.523L1151.76 184.705C1149.09 184.239 1147.09 183.352 1145.76 182.045C1144.43 180.739 1143.77 179.057 1143.78 177C1143.77 175.182 1144.24 173.642 1145.21 172.381C1146.19 171.108 1147.58 170.142 1149.39 169.483C1151.2 168.812 1153.36 168.477 1155.85 168.477C1159.63 168.477 1162.61 169.261 1164.8 170.83C1166.99 172.398 1168.14 174.568 1168.26 177.341ZM1172.54 195V168.818H1181.95V195H1172.54ZM1177.25 166.091C1175.97 166.091 1174.88 165.67 1173.97 164.83C1173.07 163.989 1172.61 162.977 1172.61 161.795C1172.61 160.614 1173.07 159.602 1173.97 158.761C1174.88 157.92 1175.97 157.5 1177.25 157.5C1178.53 157.5 1179.62 157.92 1180.52 158.761C1181.43 159.602 1181.88 160.614 1181.88 161.795C1181.88 162.977 1181.43 163.989 1180.52 164.83C1179.62 165.67 1178.53 166.091 1177.25 166.091ZM1196.15 160.091V195H1186.75V160.091H1196.15ZM1213.49 195.477C1210.7 195.477 1208.29 194.943 1206.27 193.875C1204.26 192.795 1202.7 191.25 1201.61 189.239C1200.53 187.216 1199.99 184.795 1199.99 181.977C1199.99 179.273 1200.54 176.909 1201.63 174.886C1202.72 172.864 1204.26 171.29 1206.25 170.165C1208.24 169.04 1210.59 168.477 1213.29 168.477C1215.27 168.477 1217.06 168.784 1218.66 169.398C1220.26 170.011 1221.63 170.903 1222.77 172.074C1223.9 173.233 1224.78 174.642 1225.39 176.301C1226.01 177.96 1226.31 179.83 1226.31 181.909V184.091H1202.93V178.909H1217.65C1217.64 178.159 1217.45 177.5 1217.07 176.932C1216.71 176.352 1216.22 175.903 1215.59 175.585C1214.98 175.256 1214.28 175.091 1213.49 175.091C1212.73 175.091 1212.03 175.256 1211.4 175.585C1210.76 175.903 1210.25 176.347 1209.86 176.915C1209.49 177.483 1209.29 178.148 1209.27 178.909V184.5C1209.27 185.341 1209.44 186.091 1209.8 186.75C1210.15 187.409 1210.65 187.926 1211.31 188.301C1211.97 188.676 1212.77 188.864 1213.7 188.864C1214.35 188.864 1214.94 188.773 1215.47 188.591C1216.02 188.409 1216.48 188.148 1216.87 187.807C1217.26 187.455 1217.54 187.034 1217.72 186.545H1226.31C1226.02 188.364 1225.32 189.943 1224.22 191.284C1223.11 192.614 1221.65 193.648 1219.84 194.386C1218.03 195.114 1215.91 195.477 1213.49 195.477ZM1230.15 195V168.818H1239.56V195H1230.15ZM1234.86 166.091C1233.58 166.091 1232.49 165.67 1231.58 164.83C1230.67 163.989 1230.22 162.977 1230.22 161.795C1230.22 160.614 1230.67 159.602 1231.58 158.761C1232.49 157.92 1233.58 157.5 1234.86 157.5C1236.14 157.5 1237.23 157.92 1238.13 158.761C1239.04 159.602 1239.49 160.614 1239.49 161.795C1239.49 162.977 1239.04 163.989 1238.13 164.83C1237.23 165.67 1236.14 166.091 1234.86 166.091ZM1244.36 195V168.818H1253.49V173.795H1253.76C1254.24 171.955 1255 170.608 1256.03 169.756C1257.08 168.903 1258.3 168.477 1259.7 168.477C1260.11 168.477 1260.51 168.511 1260.91 168.58C1261.32 168.636 1261.71 168.722 1262.08 168.835V176.864C1261.62 176.705 1261.04 176.585 1260.36 176.506C1259.68 176.426 1259.09 176.386 1258.61 176.386C1257.68 176.386 1256.86 176.597 1256.12 177.017C1255.39 177.426 1254.82 178.006 1254.39 178.756C1253.97 179.494 1253.76 180.364 1253.76 181.364V195H1244.36ZM1271.24 195.409C1269.57 195.409 1268.1 195.136 1266.81 194.591C1265.54 194.034 1264.54 193.193 1263.81 192.068C1263.09 190.943 1262.72 189.511 1262.72 187.773C1262.72 186.341 1262.97 185.119 1263.45 184.108C1263.94 183.085 1264.62 182.25 1265.5 181.602C1266.38 180.955 1267.39 180.46 1268.55 180.119C1269.72 179.778 1270.98 179.557 1272.34 179.455C1273.8 179.341 1274.98 179.205 1275.86 179.045C1276.76 178.875 1277.41 178.642 1277.81 178.347C1278.2 178.04 1278.4 177.636 1278.4 177.136V177.068C1278.4 176.386 1278.14 175.864 1277.62 175.5C1277.1 175.136 1276.43 174.955 1275.61 174.955C1274.71 174.955 1273.98 175.153 1273.41 175.551C1272.85 175.937 1272.52 176.534 1272.4 177.341H1263.74C1263.86 175.75 1264.36 174.284 1265.26 172.943C1266.17 171.591 1267.49 170.511 1269.23 169.705C1270.97 168.886 1273.14 168.477 1275.74 168.477C1277.62 168.477 1279.3 168.699 1280.79 169.142C1282.28 169.574 1283.55 170.182 1284.59 170.966C1285.64 171.739 1286.43 172.648 1286.98 173.693C1287.53 174.727 1287.81 175.852 1287.81 177.068V195H1279.02V191.318H1278.81C1278.29 192.295 1277.65 193.085 1276.9 193.688C1276.16 194.29 1275.32 194.727 1274.36 195C1273.42 195.273 1272.38 195.409 1271.24 195.409ZM1274.31 189.477C1275.03 189.477 1275.7 189.33 1276.32 189.034C1276.96 188.739 1277.48 188.312 1277.88 187.756C1278.27 187.199 1278.47 186.523 1278.47 185.727V183.545C1278.22 183.648 1277.95 183.744 1277.67 183.835C1277.4 183.926 1277.1 184.011 1276.78 184.091C1276.48 184.17 1276.15 184.244 1275.8 184.312C1275.45 184.381 1275.1 184.443 1274.72 184.5C1273.99 184.614 1273.4 184.801 1272.93 185.062C1272.48 185.312 1272.14 185.625 1271.91 186C1271.69 186.364 1271.59 186.773 1271.59 187.227C1271.59 187.955 1271.84 188.511 1272.35 188.898C1272.86 189.284 1273.52 189.477 1274.31 189.477ZM1297.42 195.545C1296.1 195.545 1294.97 195.085 1294.03 194.165C1293.1 193.233 1292.64 192.102 1292.65 190.773C1292.64 189.477 1293.1 188.369 1294.03 187.449C1294.97 186.528 1296.1 186.068 1297.42 186.068C1298.67 186.068 1299.77 186.528 1300.73 187.449C1301.69 188.369 1302.18 189.477 1302.19 190.773C1302.18 191.659 1301.95 192.466 1301.5 193.193C1301.05 193.909 1300.47 194.483 1299.76 194.915C1299.04 195.335 1298.26 195.545 1297.42 195.545Z" fill="white"/>
<path d="M93.3636 195V125.182H118.455V195H93.3636ZM105.909 117.909C102.515 117.909 99.6061 116.788 97.1818 114.545C94.7576 112.303 93.5455 109.606 93.5455 106.455C93.5455 103.303 94.7576 100.606 97.1818 98.3636C99.6061 96.1212 102.515 95 105.909 95C109.333 95 112.242 96.1212 114.636 98.3636C117.061 100.606 118.273 103.303 118.273 106.455C118.273 109.606 117.061 112.303 114.636 114.545C112.242 116.788 109.333 117.909 105.909 117.909ZM158.886 195L131.432 101.909H159.614L172.341 159.182H173.068L188.159 101.909H210.341L225.432 159.364H226.159L238.886 101.909H267.068L239.614 195H215.432L199.614 143H198.886L183.068 195H158.886ZM359.557 148.455C359.557 158.818 357.542 167.561 353.511 174.682C349.481 181.773 344.042 187.152 337.193 190.818C330.345 194.455 322.708 196.273 314.284 196.273C305.799 196.273 298.133 194.439 291.284 190.773C284.466 187.076 279.042 181.682 275.011 174.591C271.011 167.47 269.011 158.758 269.011 148.455C269.011 138.091 271.011 129.364 275.011 122.273C279.042 115.152 284.466 109.773 291.284 106.136C298.133 102.47 305.799 100.636 314.284 100.636C322.708 100.636 330.345 102.47 337.193 106.136C344.042 109.773 349.481 115.152 353.511 122.273C357.542 129.364 359.557 138.091 359.557 148.455ZM333.557 148.455C333.557 142.879 332.814 138.182 331.33 134.364C329.875 130.515 327.708 127.606 324.83 125.636C321.981 123.636 318.466 122.636 314.284 122.636C310.102 122.636 306.572 123.636 303.693 125.636C300.845 127.606 298.678 130.515 297.193 134.364C295.739 138.182 295.011 142.879 295.011 148.455C295.011 154.03 295.739 158.742 297.193 162.591C298.678 166.409 300.845 169.318 303.693 171.318C306.572 173.288 310.102 174.273 314.284 174.273C318.466 174.273 321.981 173.288 324.83 171.318C327.708 169.318 329.875 166.409 331.33 162.591C332.814 158.742 333.557 154.03 333.557 148.455ZM371.25 195V101.909H411.432C418.341 101.909 424.386 103.167 429.568 105.682C434.75 108.197 438.78 111.818 441.659 116.545C444.538 121.273 445.977 126.939 445.977 133.545C445.977 140.212 444.492 145.833 441.523 150.409C438.583 154.985 434.447 158.439 429.114 160.773C423.811 163.106 417.614 164.273 410.523 164.273H386.523V144.636H405.432C408.402 144.636 410.932 144.273 413.023 143.545C415.144 142.788 416.765 141.591 417.886 139.955C419.038 138.318 419.614 136.182 419.614 133.545C419.614 130.879 419.038 128.712 417.886 127.045C416.765 125.348 415.144 124.106 413.023 123.318C410.932 122.5 408.402 122.091 405.432 122.091H396.523V195H371.25ZM425.795 152.273L449.068 195H421.614L398.886 152.273H425.795ZM456.75 195V101.909H482.023V139.545H483.295L511.295 101.909H540.75L509.295 143.364L541.477 195H511.295L490.386 160.091L482.023 171V195H456.75Z" fill="#F2CB05"/>
<path d="M0 262H1440" stroke="url(#paint0_linear_7_115)" stroke-width="5"/>
<defs>
<linearGradient id="paint0_linear_7_115" x1="0" y1="262.5" x2="1440" y2="262.5" gradientUnits="userSpaceOnUse">
<stop stop-color="#038C4C"/>
<stop offset="0.71" stop-color="#FFC107"/>
</linearGradient>
</defs>
</svg>
